<?xml version="1.0" encoding="UTF-8" standalone="no"?>
<!-- Created with Inkscape (http://www.inkscape.org/) -->

<svg
   version="1.1"
   id="svg32"
   width="304.96008"
   height="318.1947"
   viewBox="0 0 304.96008 318.19471"
   xmlns="http://www.w3.org/2000/svg"
   xmlns:svg="http://www.w3.org/2000/svg">
  <defs
     id="defs36" />
  <g
     id="g38"
     transform="translate(8.6216913e-5,0.05101537)">
    <path
       style="fill:#000000;stroke-width:0.32"
       d="m 0,317.40081 c 0,-0.56744 0.07897526,-0.61364 0.47999998,-0.28082 0.264,0.2191 0.47999999,0.52473 0.47999999,0.67918 0,0.15445 -0.21599999,0.28082 -0.47999999,0.28082 C 0.20410286,318.07999 0,317.79119 0,317.40081 Z m 50.879998,-7.80082 8.475472,-8.48 h 18.48134 18.481344 l 1.328256,-1.2 c 1.156761,-1.04506 1.532115,-1.2 2.90717,-1.2 1.37896,0 1.69717,0.13235 2.51267,1.04505 1.36734,1.53032 1.31041,3.28228 -0.15425,4.74695 -1.59212,1.59212 -3.158048,1.53376 -5.152003,-0.192 l -1.478925,-1.28 H 78.137981 59.994891 l -7.514893,7.52 c -7.303119,7.30808 -7.550972,7.52 -8.79518,7.52 h -1.280291 z m 50.934802,-6.1296 c 1.23596,-1.11852 0.30501,-3.3104 -1.40601,-3.3104 -0.763801,0 -1.848793,1.12678 -1.848793,1.92 0,0.84669 1.103949,1.92 1.974803,1.92 0.38214,0 0.95814,-0.23832 1.28,-0.5296 z m -34.097567,13.32868 c -1.287286,-1.42488 -1.514362,-2.86026 -0.701235,-4.43267 0.809014,-1.56446 3.441465,-2.17883 4.914627,-1.14699 1.934227,1.35479 2.061328,3.82329 0.295904,5.7469 -1.48936,1.62281 -2.940726,1.56898 -4.509296,-0.16724 z m 3.497309,-1.42454 c 0.915273,-0.91527 0.970732,-1.36762 0.287312,-2.34334 -0.591568,-0.84458 -2.092608,-0.95473 -2.838999,-0.20834 -0.74639,0.74639 -0.636233,2.24743 0.208346,2.839 0.975722,0.68342 1.42807,0.62796 2.343341,-0.28732 z m 10.964425,1.82546 c -1.923667,-2.06249 -2.066979,-3.77599 -0.45097,-5.392 0.891936,-0.89194 1.330195,-1.088 2.432,-1.088 1.111293,0 1.539418,0.19542 2.472643,1.12864 1.038071,1.03807 1.115447,1.24571 0.964221,2.5874 -0.352998,3.13179 -3.552467,4.76401 -5.417894,2.76396 z m 3.50103,-1.93347 c 0.917805,-1.16756 0.03367,-2.94653 -1.4644,-2.94653 -1.009558,0 -1.977136,0.8492 -1.9707,1.7296 0.01331,1.82015 2.318857,2.63693 3.4351,1.21693 z m 10.615385,1.87808 c -0.74743,-0.74742 -0.935385,-1.21537 -0.935385,-2.32879 0,-1.67686 0.668857,-2.72683 2.124515,-3.33504 1.442349,-0.60265 2.574448,-0.28979 4.050308,1.11933 l 1.21481,1.15989 7.87969,0.0962 c 8.2622,0.10091 9.38256,-0.0426 10.04866,-1.28723 0.7183,-1.34216 3.45007,-1.79069 4.7767,-0.78429 2.89852,2.19885 1.60976,6.27103 -1.99007,6.28815 -1.22097,0.006 -1.6619,-0.1594 -2.40282,-0.90032 -1.61996,-1.61996 -1.81443,-1.65256 -9.85665,-1.65256 -8.12035,0 -8.50724,0.0665 -10.06092,1.7296 -0.63103,0.67546 -1.06851,0.8304 -2.34462,0.8304 -1.307309,0 -1.724765,-0.15593 -2.504218,-0.93539 z m 4.067588,-1.60502 c 0.47597,-0.93575 0.20905,-1.86454 -0.708637,-2.46583 -0.632231,-0.41426 -0.871127,-0.42229 -1.637287,-0.0551 -0.759164,0.36386 -0.897049,0.62458 -0.897049,1.69618 0,1.0161 0.151373,1.34171 0.766265,1.64826 0.952151,0.4747 1.992301,0.12884 2.476708,-0.82353 z m 24.57417,0.43755 c 0.52794,-0.52794 0.65684,-1.65185 0.25796,-2.24924 -0.12931,-0.19365 -0.57708,-0.53234 -0.99507,-0.75264 -0.64898,-0.34206 -0.88263,-0.30906 -1.6,0.22601 -1.04748,0.78128 -1.19983,1.48614 -0.53915,2.49446 0.60197,0.91872 2.09306,1.06461 2.87626,0.28141 z m 2.42286,-10.85714 -12.95704,-12.96 H 94.020941 73.638922 l -1.478924,1.28 c -1.231693,1.06602 -1.709181,1.28 -2.856307,1.28 -2.548026,0 -4.223018,-2.31209 -3.28362,-4.53256 0.696551,-1.64644 1.675463,-2.34744 3.278103,-2.34744 1.191036,0 1.579388,0.18399 2.70166,1.28 l 1.310679,1.28 21.034889,0.0888 21.034888,0.0888 13.74846,13.75125 13.74845,13.75124 h -1.28008 c -1.25909,0 -1.49259,-0.21255 -14.23712,-12.96 z M 70.53714,292.61713 c 1.374675,-1.37467 -0.176554,-3.85932 -1.914963,-3.06724 -0.435382,0.19837 -0.95391,0.7169 -1.152285,1.15228 -0.792073,1.73841 1.692573,3.28964 3.067248,1.91496 z m 85.3759,18.47109 -6.40601,-6.99177 -1.8365,-0.18955 c -3.00657,-0.3103 -4.55158,-2.42469 -3.54032,-4.84499 0.59905,-1.43371 1.65627,-2.10192 3.3256,-2.10192 1.11342,0 1.58137,0.18796 2.3288,0.93539 0.79088,0.79088 0.93886,1.19871 0.95788,2.64 0.0124,0.93753 0.12037,1.94228 0.24,2.23276 0.11963,0.29048 3.0255,3.59281 6.4575,7.33852 7.72801,8.4344 7.38235,7.97333 5.97768,7.97333 -1.02251,0 -1.54241,-0.48436 -7.50463,-6.99177 z m -7.2959,-9.51109 c 1.50193,-1.50193 -0.4673,-4.03311 -2.23607,-2.87417 -1.01746,0.66667 -1.25963,1.64738 -0.64024,2.5927 0.60202,0.91878 2.09309,1.0647 2.87631,0.28147 z m 28.98285,12.26154 v -4.24132 l -14.48733,-14.48471 -14.48734,-14.48471 -32.21497,0.086 -32.214964,0.086 -1.057696,1.0016 c -1.913597,1.81212 -2.818601,2.0517 -4.584605,1.21367 -1.346387,-0.6389 -2.209382,-2.34842 -1.931984,-3.82709 0.481639,-2.56734 3.988605,-3.64924 5.837101,-1.80074 0.499091,0.49909 1.220701,1.07509 1.603578,1.28 0.516435,0.27639 9.065955,0.37256 33.11846,0.37256 h 32.42231 l 14.95872,14.96126 14.95872,14.96127 v 4.55873 4.55874 h -0.96 -0.96 z M 81.279997,281.27999 c 0.778176,-0.77817 0.8225,-1.82794 0.110404,-2.6148 -1.078138,-1.19133 -3.310404,-0.3657 -3.310404,1.2244 0,0.91837 1.051562,2.0304 1.92,2.0304 0.352,0 0.928,-0.288 1.28,-0.64 z m 111.681193,36.56 c 6.4e-4,-0.132 0.27751,-0.69316 0.61523,-1.24701 0.81542,-1.33726 2.47367,-1.9045 4.04834,-1.38482 1.00478,0.33161 2.37012,1.84521 2.37404,2.63183 0.003,0.55676 -1.42309,0.17776 -2.10683,-0.56 -0.40778,-0.44 -1.04317,-0.8 -1.41198,-0.8 -0.3688,0 -1.00419,0.36 -1.41197,0.8 -0.68374,0.73776 -2.1096,1.11676 -2.10683,0.56 z m 13.1188,-6.56317 v -6.80318 l -21.84547,-21.83682 -21.84548,-21.83683 -1.59452,-10e-4 c -1.93648,-0.002 -3.40323,-0.81129 -3.97664,-2.19562 -0.9619,-2.32215 0.72388,-4.8431 3.23867,-4.8431 1.03749,0 1.49868,0.21124 2.37544,1.088 0.96533,0.96533 1.088,1.28042 1.088,2.79464 v 1.70664 l 22.24,22.24844 22.24,22.24843 v 7.11693 7.11692 h -0.96 -0.96 z m -44.8,-52.71683 c 0.77818,-0.77817 0.8225,-1.82794 0.11041,-2.6148 -1.07814,-1.19133 -3.31041,-0.3657 -3.31041,1.2244 0,0.91837 1.05157,2.0304 1.92,2.0304 0.352,0 0.928,-0.288 1.28,-0.64 z m 57.13193,58.65358 c -0.1196,-0.47652 -0.69622,-1.39634 -1.28137,-2.04403 -1.36346,-1.50919 -1.65697,-2.79784 -0.96796,-4.24982 1.62985,-3.43467 6.5574,-2.23183 6.5574,1.60068 0,1.20814 -0.17813,1.61473 -1.14244,2.60764 -0.62834,0.64699 -1.22234,1.57585 -1.32,2.06414 -0.24769,1.23848 -1.53641,1.25342 -1.84563,0.0214 z m 2.12288,-3.50318 c 1.15787,-1.04786 0.37242,-3.31659 -1.1444,-3.3055 -1.40154,0.0102 -2.36986,1.46519 -1.75376,2.6351 0.69514,1.32001 1.87801,1.59363 2.89816,0.6704 z m 9.86519,-3.61094 v -7.98053 l -1.28,-1.47893 c -1.71835,-1.9854 -1.85669,-3.82834 -0.40204,-5.35602 1.9992,-2.09955 5.66742,-0.95649 5.89198,1.83602 0.11983,1.49019 -0.11803,2.11975 -1.32994,3.52 l -1.28,1.47893 v 7.98053 7.98054 h -0.8 -0.8 z m 2.35083,-11.61946 0.65413,-0.88 -0.65458,-0.88 c -0.78496,-1.05527 -1.86912,-1.28513 -2.66486,-0.56499 -0.88728,0.80298 -0.97366,1.66832 -0.25744,2.57886 0.82656,1.05079 2.03071,0.9462 2.92275,-0.25387 z m 12.04917,13.50411 c 0,-6.53914 -0.10988,-7.08674 -1.7247,-8.59529 -1.07765,-1.00673 -1.36176,-2.54136 -0.70545,-3.81052 0.7157,-1.384 1.71484,-1.9783 3.32597,-1.9783 1.99191,0 3.26418,1.29244 3.26418,3.31592 0,1.22619 -0.19394,1.66924 -1.28,2.92408 l -1.28,1.47893 v 6.38053 6.38054 h -0.8 -0.8 z m 2.05714,-9.76697 c 1.37468,-1.37467 -0.17655,-3.85932 -1.91496,-3.06725 -0.43538,0.19838 -0.95391,0.71691 -1.15228,1.15229 -0.79208,1.73841 1.69257,3.28964 3.06724,1.91496 z m 13.30286,8.58483 v -7.27803 l -9.518,-9.52197 -9.518,-9.52197 H 229.82745 218.5309 l -0.77344,0.77344 c -1.93801,1.93801 -3.37224,2.26297 -5.16448,1.17013 -2.87573,-1.75351 -1.48998,-6.41786 1.90805,-6.42237 1.10827,-0.002 2.0165,0.46711 3.20076,1.65136 l 0.90743,0.90744 h 11.57354 11.57354 l 10.08185,10.07765 10.08184,10.07765 -0.0911,7.68235 -0.0911,7.68235 h -0.78892 -0.78892 z m -44.5512,-25.86011 c 1.35713,-0.95057 0.57116,-3.34186 -1.09839,-3.34186 -0.91838,0 -2.03041,1.05156 -2.03041,1.92 0,0.79322 1.08499,1.92 1.8488,1.92 0.31284,0 0.88884,-0.22417 1.28,-0.49814 z m 61.1912,21.85645 v -11.28169 l -11.28779,-11.28444 -11.2878,-11.28443 -23.57454,0.0861 -23.57454,0.0861 -1.05766,1.02038 c -1.45879,1.40735 -2.63255,1.81035 -3.97876,1.36606 -1.50837,-0.49781 -2.35891,-1.70441 -2.35891,-3.34644 0,-1.68563 0.8924,-2.90289 2.44179,-3.3307 1.41354,-0.3903 2.47186,-0.0235 3.89588,1.35033 l 1.05767,1.02037 24.06233,0.0845 24.06233,0.0845 11.76,11.75384 11.76,11.75383 v 11.60162 11.60162 h -0.96 -0.96 z m -72.30865,-33.37199 c 0.19378,-0.23348 0.3065,-0.89864 0.25049,-1.47812 -0.17932,-1.85532 -2.31779,-2.29496 -3.36784,-0.69238 -1.20676,1.84175 1.70668,3.87027 3.11735,2.1705 z M 12.582715,314.0594 c -1.470589,-0.74788 -2.201728,-2.44004 -1.731873,-4.00828 0.498078,-1.66244 1.681516,-2.53113 3.448204,-2.53113 0.777004,0 1.801585,-0.20619 2.276845,-0.45821 0.475259,-0.25202 8.964108,-8.571 18.864108,-18.48663 l 17.999999,-18.02841 v -1.52926 c 0,-2.72163 1.370544,-4.37749 3.623203,-4.37749 0.984435,0 1.465587,0.22479 2.328797,1.088 0.891936,0.89194 1.088,1.3302 1.088,2.432 0,1.10181 -0.196064,1.54007 -1.088,2.432 -0.965696,0.9657 -1.280106,1.088 -2.796937,1.088 h -1.708935 l -18.643065,18.64306 -18.643062,18.64307 v 1.67189 c 0,1.37389 -0.156846,1.84587 -0.88,2.64804 -1.085985,1.20466 -2.697043,1.50581 -4.137284,0.77335 z m 2.832087,-1.62901 c 1.191331,-1.07813 0.365697,-3.3104 -1.224399,-3.3104 -0.918374,0 -2.030403,1.05156 -2.030403,1.92 0,0.84668 1.10395,1.92 1.974802,1.92 0.382142,0 0.958142,-0.23832 1.28,-0.5296 z m 42.753993,-42.84854 c 1.357126,-0.95057 0.571165,-3.34186 -1.098394,-3.34186 -0.820838,0 -2.030403,1.02277 -2.030403,1.71685 0,0.68508 1.267975,2.12315 1.872023,2.12315 0.300067,0 0.865616,-0.22416 1.256774,-0.49814 z m 236.871195,29.05583 c -5.368,-5.20916 -14.296,-13.86869 -19.84,-19.24339 -5.544,-5.37471 -12.46134,-12.11716 -15.37187,-14.98324 l -5.29187,-5.21106 h -6.76866 -6.76867 l -1.47893,1.28 c -1.99395,1.72576 -3.55988,1.78412 -5.152,0.192 -0.87676,-0.87676 -1.088,-1.33796 -1.088,-2.37544 0,-2.31872 2.34317,-4.09476 4.4994,-3.4104 0.39327,0.12482 1.20259,0.71449 1.79849,1.31039 l 1.08345,1.08345 h 7.17319 7.17319 l 12.09614,11.74572 c 14.02981,13.62337 31.39746,30.47 35.23958,34.18241 2.48808,2.40408 2.65663,2.65014 2.56,3.73714 l -0.10344,1.16361 z m -56.96,-39.11769 c 0.352,-0.352 0.64,-0.83658 0.64,-1.07684 0,-0.68509 -1.26797,-2.12316 -1.87202,-2.12316 -0.99767,0 -1.96798,0.94433 -1.96798,1.91529 0,1.79542 1.91891,2.56581 3.2,1.28471 z M 2.9152227,306.43343 c -2.08103985,-1.15343 -2.17830423,-4.5235 -0.1685594,-5.84034 0.4703763,-0.3082 1.4488038,-0.5895 2.1742831,-0.62511 0.7254793,-0.0356 1.5304751,-0.079 1.7888796,-0.0964 0.2584045,-0.0174 5.695308,-5.24988 12.082008,-11.62774 L 30.404015,276.64776 20.403912,266.64388 10.40381,256.63999 H 5.2019048 0 v -0.8 -0.8 h 5.6817646 5.6817644 l 10.798145,10.80165 10.798143,10.80165 -12.284565,12.28146 -12.2845662,12.28145 -0.1392032,1.92447 c -0.1210275,1.67319 -0.2725369,2.04359 -1.1603913,2.83689 -1.1395494,1.01819 -2.8375836,1.20762 -4.1758686,0.46587 z m 3.3066318,-1.86464 c 0.6417597,-0.91624 0.6274922,-1.29816 -0.081192,-2.17335 -1.1351439,-1.40184 -3.2606629,-0.64382 -3.2606629,1.16285 0,1.65962 2.3825804,2.38006 3.3418549,1.0105 z M 182.32402,303.49907 c -1.18219,-0.64145 -1.84403,-2.03219 -1.84403,-3.8749 v -1.52761 l -14.3152,-14.32828 -14.3152,-14.32829 H 112.16326 72.476919 l -12.364959,12.4 c -6.80073,6.82 -12.524038,12.71454 -12.718464,13.09896 -0.194422,0.38443 -0.353498,1.33701 -0.353498,2.11685 0,1.77215 -0.866742,2.95468 -2.531129,3.45335 -3.509306,1.05141 -5.998057,-3.56994 -3.193437,-5.92987 0.747091,-0.62863 1.329117,-0.81929 2.501107,-0.81929 1.184916,0 1.807293,-0.208 2.775447,-0.92757 0.686406,-0.51016 6.719302,-6.41416 13.406434,-13.12 l 12.158419,-12.19243 h 40.157001 40.15699 l 14.73261,14.72 14.7326,14.72 h 1.70398 c 1.51119,0 1.82707,0.1231 2.79197,1.088 0.89194,0.89194 1.088,1.3302 1.088,2.432 0,1.10181 -0.19606,1.54006 -1.088,2.432 -1.2203,1.2203 -2.58223,1.41493 -4.10797,0.58708 z m 3.01078,-1.62868 c 1.1815,-1.06924 0.36831,-3.3104 -1.20118,-3.3104 -0.96095,0 -2.1291,1.4831 -1.86692,2.37028 0.42143,1.42606 1.99751,1.90899 3.0681,0.94012 z m -140.534801,-3.3104 c 0.352,-0.352 0.64,-0.95266 0.64,-1.3348 0,-1.72102 -2.371181,-2.53983 -3.341856,-1.154 -0.672788,0.96054 -0.627312,1.51006 0.197635,2.38818 0.854595,0.90967 1.662701,0.94214 2.504221,0.10062 z M 0.23999999,290.69646 C 0.108,290.56274 0,290.11458 0,289.70056 c 0,-0.64374 0.11620151,-0.7236 0.80233124,-0.55139 1.16164376,0.29155 2.39766866,-0.60902 2.39766866,-1.74696 0,-1.26351 -1.0045903,-2.0973 -2.23131564,-1.85196 C 0.06409626,285.73117 0,285.681 0,284.79199 c 0,-0.9012 0.0700056,-0.952 1.312,-0.952 1.0654117,0 1.5164877,0.20449 2.3999999,1.088 1.4404579,1.44046 1.5193967,3.21913 0.208,4.68671 -0.8755217,0.9798 -3.12727775,1.64172 -3.67999991,1.08176 z M 301.11119,290.33468 c -0.43516,-0.29993 -0.96662,-0.76793 -1.18102,-1.04 -0.47878,-0.60757 -0.52934,-3.03411 -0.0807,-3.87241 0.6942,-1.29712 3.1351,-1.97697 4.49156,-1.25102 0.541,0.28954 0.61896,0.69114 0.61896,3.18874 0,2.4976 -0.078,2.8992 -0.61896,3.18874 -0.92399,0.49451 -2.33772,0.40081 -3.22984,-0.21405 z m 2.8176,-1.55283 c 1.35712,-0.95057 0.57116,-3.34186 -1.0984,-3.34186 -0.82084,0 -2.0304,1.02277 -2.0304,1.71685 0,0.68508 1.26797,2.12315 1.87202,2.12315 0.30007,0 0.86562,-0.22417 1.25678,-0.49814 z M 11.68,275.77168 c -0.352,-0.20286 -1.047077,-0.77448 -1.544616,-1.27026 L 9.230769,273.59999 H 4.6153845 0 v -0.96 -0.96 h 4.6390779 4.639078 l 1.2393601,-1.11968 c 1.522289,-1.3753 2.742085,-1.65799 4.316208,-1.00028 3.296657,1.37743 2.21719,6.62029 -1.356879,6.59023 C 12.84058,276.14491 12.032,275.97455 11.68,275.77168 Z m 3.181854,-1.92289 c 0.27398,-0.39116 0.498145,-0.96716 0.498145,-1.28 0,-0.76381 -1.126776,-1.8488 -1.919999,-1.8488 -0.846686,0 -1.92,1.10395 -1.92,1.9748 0,1.72103 2.371179,2.53983 3.341854,1.154 z m 274.346186,1.81239 c -1.12563,-0.61086 -1.52805,-1.39449 -1.52805,-2.9756 0,-2.35918 2.37731,-4.11031 4.48333,-3.30245 0.43817,0.16809 1.26336,0.75364 1.83376,1.30124 l 1.03709,0.99562 h 4.96291 4.96291 v 0.96 0.96 h -4.78054 -4.78053 l -1.47893,1.28 c -1.63928,1.41879 -3.09295,1.65979 -4.71195,0.78119 z m 3.00675,-1.63079 c 0.8174,-0.73973 0.75209,-2.19721 -0.126,-2.81225 -1.01963,-0.71418 -1.70821,-0.61783 -2.46557,0.34501 -0.8291,1.05401 -0.83394,1.54613 -0.0232,2.35684 0.77818,0.77818 1.82795,0.8225 2.61481,0.1104 z M 41.938037,267.39813 c -2.188176,-0.72691 -3.171225,-3.76406 -1.7388,-5.37206 0.772122,-0.86677 2.405965,-1.55802 3.194902,-1.35171 0.33824,0.0885 0.936394,0.0419 1.329229,-0.1034 0.392835,-0.14531 4.580838,-4.11323 9.306675,-8.81759 l 8.592429,-8.55338 h 37.729828 37.72982 l 18.07787,-18.08 18.07788,-18.08 h 17.5016 17.5016 l 1.47892,-1.28 c 1.63971,-1.41915 2.74204,-1.61599 4.3611,-0.77874 2.67718,1.38442 2.0821,5.85146 -0.85286,6.40206 -1.57615,0.29569 -2.53792,-0.0343 -3.81147,-1.30788 l -1.11543,-1.11544 H 192.0896 174.87787 l -18.07788,18.08 -18.07787,18.08 H 100.95871 63.195291 l -8.043843,8.08 c -4.424115,4.444 -8.203056,8.39454 -8.397648,8.77896 -0.194589,0.38443 -0.353802,1.3484 -0.353802,2.14216 0,2.50093 -2.117267,4.05592 -4.461961,3.27702 z m 2.150758,-1.65628 c 0.84458,-0.59157 0.954736,-2.09261 0.208346,-2.839 -0.74639,-0.74639 -2.24743,-0.63623 -2.838998,0.20834 -0.683421,0.97573 -0.627962,1.42808 0.287312,2.34335 0.91527,0.91527 1.367619,0.97073 2.34334,0.28731 z M 214.71999,209.27999 c 0.352,-0.352 0.64,-0.928 0.64,-1.28 0,-0.79322 -1.08499,-1.92 -1.84879,-1.92 -0.97355,0 -1.99121,0.93678 -1.99121,1.83295 0,1.80112 1.93801,2.62905 3.2,1.36705 z m -31.58036,52.49545 c -2.84527,-1.73488 -1.39669,-6.41545 1.98551,-6.41545 1.06508,0 2.01104,0.50722 3.08324,1.65322 l 0.84839,0.90678 h 11.63236 11.63235 l 25.75851,-25.76 25.75851,-25.76 h 20.56075 20.56074 v 0.8 0.8 h -20.08074 -20.08074 l -25.91852,25.92 -25.91852,25.92 h -11.88715 -11.88715 l -0.75359,0.81415 c -1.66614,1.80004 -3.53247,2.19535 -5.29395,1.1213 z m 3.15517,-1.50504 c 1.16529,-1.05458 0.37262,-3.31041 -1.16324,-3.31041 -1.67917,0 -2.62446,2.02711 -1.4793,3.17227 0.80369,0.80369 1.84685,0.85822 2.64254,0.13814 z M 65.519991,260.13436 c -1.491263,-0.86858 -1.950822,-3.59052 -0.86392,-5.11694 0.967591,-1.35886 2.755351,-1.81083 4.287277,-1.08388 0.657482,0.31199 1.271648,0.76591 1.364813,1.00869 0.534925,1.39399 0.114649,1.37776 35.677589,1.37776 h 33.69753 l 11.67672,-11.68 11.67671,-11.68 h 21.4536 21.45361 l 5.50803,-5.54073 5.50804,-5.54073 0.001,-1.57927 c 0.002,-1.92051 0.81585,-3.38986 2.19563,-3.96138 2.32223,-0.9619 4.84318,0.72388 4.84318,3.23867 0,1.03748 -0.21124,1.49868 -1.088,2.37544 -0.96311,0.96311 -1.28232,1.088 -2.78085,1.088 h -1.69284 l -5.94987,5.92 -5.94987,5.92 h -21.43096 -21.43095 l -11.51666,11.52 -11.51667,11.52 h -34.1827 c -25.083273,0 -34.368767,0.0977 -34.881666,0.36693 -0.384429,0.20181 -1.171974,0.77781 -1.750099,1.28 -0.805018,0.69928 -1.36696,0.91079 -2.4,0.90334 -0.741875,-0.005 -1.600867,-0.15651 -1.90887,-0.3359 z m 3.478023,-2.06748 c 0.657053,-1.00279 0.229309,-2.20591 -0.980195,-2.75699 -1.662522,-0.7575 -3.033565,1.18165 -2.086564,2.95114 0.514061,0.96053 2.387914,0.8419 3.066759,-0.19415 z M 221.8148,220.9104 c 1.18606,-1.07338 0.36709,-3.31041 -1.21194,-3.31041 -0.86194,0 -2.04287,1.14479 -2.04287,1.98034 0,0.79506 1.13052,1.85966 1.97481,1.85966 0.38214,0 0.95814,-0.23831 1.28,-0.52959 z m 67.8879,38.09334 c -0.9931,-0.48976 -2.02271,-2.09216 -2.02271,-3.148 0,-0.81114 0.87614,-2.32072 1.66937,-2.87632 0.39217,-0.27469 1.34007,-0.49943 2.10645,-0.49943 1.12289,0 1.58059,0.18718 2.35753,0.96412 0.53027,0.53027 1.22972,1.10627 1.55435,1.28 0.32462,0.17373 2.61569,0.31588 5.09126,0.31588 h 4.50104 v 0.77695 0.77694 l -4.78316,0.10306 -4.78315,0.10305 -1.05685,1.00161 c -1.91078,1.8109 -2.88647,2.064 -4.63413,1.20214 z m 2.77729,-1.72375 c 1.24131,-1.2413 0.43858,-3.2 -1.31145,-3.2 -0.94379,0 -1.88855,0.9845 -1.88855,1.96798 0,0.60405 1.43807,1.87202 2.12316,1.87202 0.24026,0 0.72484,-0.288 1.07684,-0.64 z M 26.684197,256.64637 c -1.146925,-0.46341 -2.044198,-1.89898 -2.044198,-3.27057 0,-2.33948 0.881988,-3.11452 3.970214,-3.4888 l 1.890213,-0.22908 7.708853,-7.70886 7.708851,-7.70885 L 27.520109,215.8401 9.1220867,197.43999 H 4.5610434 0 v -0.96 -0.96 h 4.7190242 4.7190241 l 19.4403557,19.4384 19.440356,19.4384 -8.362291,8.36675 -8.362289,8.36676 -0.06178,1.71485 c -0.07281,2.02112 -0.593473,2.97803 -1.977798,3.63493 -1.121329,0.53211 -1.859215,0.57486 -2.870407,0.16629 z m 2.3646,-1.78452 c 1.369556,-0.95928 0.649123,-3.34186 -1.010494,-3.34186 -1.681403,0 -2.497873,1.67115 -1.460684,2.98972 0.762748,0.96968 1.449749,1.06757 2.471178,0.35214 z m 220.313933,-5.73778 c -2.21755,-0.96393 -2.59726,-4.13767 -0.6873,-5.74479 1.63114,-1.37252 3.59824,-1.07483 5.50636,0.83328 l 0.90743,0.90743 h 24.93539 24.93538 v 0.79242 0.7924 l -24.94235,0.0876 -24.94235,0.0876 -1.05765,1.02038 c -1.01109,0.97545 -2.42849,1.71385 -3.23848,1.6871 -0.20854,-0.007 -0.84594,-0.21542 -1.41643,-0.4634 z m 2.78479,-1.82442 c 0.79015,-0.84812 0.83441,-1.76822 0.12287,-2.55446 -1.07813,-1.19133 -3.3104,-0.3657 -3.3104,1.2244 0,0.91291 1.04987,2.0304 1.90753,2.0304 0.34515,0 0.92115,-0.31515 1.28,-0.70034 z m -82.75454,0.72391 c -2.5531,-1.55679 -1.85453,-5.74785 1.04884,-6.29253 1.54584,-0.29 2.51428,0.0464 3.78141,1.31353 l 1.11543,1.11543 h 18.17146 18.17146 l 24.15841,-24.16 24.15841,-24.16 h 9.03988 9.03987 l 1.25782,-1.13637 c 2.83754,-2.56354 6.42402,-1.38157 6.42402,2.11712 0,1.07821 -0.20148,1.52473 -1.088,2.41125 -1.64006,1.64006 -3.68113,1.39967 -5.58559,-0.65785 l -0.75358,-0.81415 h -8.84721 -8.84721 l -24.15841,24.16 -24.15841,24.16 h -18.46133 -18.46133 l -1.47893,1.28 c -1.69474,1.46679 -2.91613,1.64583 -4.52701,0.66357 z m 3.01581,-1.48171 c 1.35713,-0.95057 0.57117,-3.34186 -1.09839,-3.34186 -0.91838,0 -2.03041,1.05156 -2.03041,1.92 0,0.79322 1.085,1.92 1.8488,1.92 0.31284,0 0.88884,-0.22416 1.28,-0.49814 z m 111.5122,-48.82189 c 0.53286,-0.71702 0.56563,-0.95134 0.22374,-1.6 -0.48688,-0.92376 -0.91133,-1.22863 -1.71954,-1.23507 -1.54545,-0.0123 -2.33332,2.05905 -1.2419,3.26505 0.72961,0.80621 1.96296,0.61249 2.7377,-0.42998 z M 0,245.91999 c 0,-0.74598 0.10734839,-0.8 1.5897741,-0.8 h 1.5897741 l 8.6107908,-7.51192 c 4.963027,-4.32967 8.693426,-7.82036 8.805856,-8.24 0.107286,-0.40044 0.197032,-1.17666 0.199435,-1.72492 0.0059,-1.33733 1.051332,-2.58765 2.5355,-3.03232 1.607078,-0.48149 3.284149,0.26498 4.004142,1.78225 0.627628,1.32263 0.63242,1.87176 0.02655,3.04338 -0.743656,1.43807 -1.686647,1.92353 -3.736415,1.92353 -2.122684,0 -1.120292,-0.7358 -12.583604,9.23697 l -7.0381933,6.12303 H 2.0018063 C 0.07987957,246.71999 0,246.68807 0,245.91999 Z m 25.897555,-17.17484 c 0.974995,-1.74539 -1.00362,-3.48449 -2.699887,-2.37305 -1.589644,1.04157 -0.655858,3.51241 1.255997,3.32342 0.656059,-0.0648 1.119705,-0.37002 1.44389,-0.95037 z m 235.291805,6.91542 c -1.08913,-0.76286 -1.75711,-2.29256 -1.52992,-3.50359 0.39328,-2.09635 2.99069,-3.59065 4.70686,-2.70788 0.41453,0.21323 1.22962,0.83841 1.8113,1.38929 l 1.05762,1.0016 18.86238,0.0874 18.86239,0.0874 v 0.79257 0.79256 h -18.70054 -18.70053 l -1.47893,1.28 c -1.22143,1.05714 -1.71385,1.28 -2.82826,1.28 -0.74213,0 -1.6702,-0.22474 -2.06237,-0.49942 z m 3.18543,-1.63017 c 0.76801,-0.69504 0.74386,-1.87175 -0.0548,-2.67041 -0.81071,-0.81071 -1.30283,-0.80586 -2.35684,0.0232 -0.96284,0.75737 -1.05919,1.44595 -0.34501,2.46558 0.59545,0.85013 1.92142,0.93748 2.75665,0.1816 z M 44.308523,215.03828 26.377048,197.11999 h -1.785369 c -2.157839,0 -3.284861,-0.7422 -3.81527,-2.51255 -1.079947,-3.60454 3.503152,-6.08939 5.9243,-3.21201 0.647063,0.76899 0.81929,1.32026 0.81929,2.62243 v 1.64877 l 17.837648,17.8482 17.837647,17.8482 32.162351,-0.0815 32.162355,-0.0815 0.0827,-17.75559 0.0827,-17.75559 -7.76274,-7.72851 -7.76274,-7.72851 -2.04757,-0.13976 c -1.81329,-0.12376 -2.15197,-0.2566 -2.96,-1.16094 -0.72062,-0.80652 -0.91243,-1.32802 -0.91243,-2.48076 0,-3.95737 5.4759,-4.69998 6.726,-0.91213 0.20479,0.6205 0.28864,1.3463 0.18635,1.61288 -0.41862,1.0909 1.05999,2.88421 8.41537,10.20641 l 7.71228,7.6775 v 18.9625 18.9625 l -33.520003,-0.002 -33.519999,-0.002 -17.931475,-17.91828 z M 25.334802,194.9904 c 1.235955,-1.11853 0.305013,-3.31041 -1.406005,-3.31041 -0.763807,0 -1.848798,1.12678 -1.848798,1.92 0,0.84669 1.10395,1.92 1.974803,1.92 0.382142,0 0.958142,-0.23831 1.28,-0.52959 z M 110.6663,178.04959 c 0.5722,-0.40078 0.70776,-0.76003 0.6312,-1.67264 -0.16654,-1.98512 -2.4534,-2.46112 -3.35008,-0.6973 -0.47493,0.93422 -0.10642,1.96393 0.88597,2.47563 0.97316,0.50179 0.96494,0.50226 1.83291,-0.10569 z M 140,226.59386 c -1.12503,-0.48926 -1.83116,-1.56772 -1.99849,-3.05224 -0.14931,-1.32464 -0.0693,-1.53787 0.96584,-2.57298 1.03251,-1.03251 1.28701,-1.12865 2.98778,-1.12865 h 1.85914 l 12.49255,-12.48 12.49255,-12.48 h 26.54682 26.54682 l 1.22891,-1.2 c 1.09065,-1.06498 1.41014,-1.2 2.83974,-1.2 1.415,0 1.72435,0.12705 2.54458,1.04505 1.36735,1.53033 1.31042,3.28229 -0.15425,4.74695 -1.59211,1.59212 -3.15804,1.53376 -5.152,-0.192 l -1.47892,-1.28 H 195.41095 169.10084 L 157.03042,208.89784 144.96,220.99569 v 1.8171 c 0,1.53022 -0.13894,1.97259 -0.88,2.80191 -0.94324,1.05557 -2.85131,1.51349 -4.08,0.97916 z m 2.72,-1.95387 c 0.352,-0.352 0.64,-0.928 0.64,-1.28 0,-0.79322 -1.085,-1.92 -1.8488,-1.92 -0.97355,0 -1.9912,0.93678 -1.9912,1.83295 0,1.80112 1.938,2.62905 3.2,1.36705 z m 84.5348,-27.40959 c 0.81739,-0.73973 0.75209,-2.19722 -0.12601,-2.81226 -0.97661,-0.68404 -1.70617,-0.62447 -2.47633,0.20219 -0.82452,0.88502 -0.8285,1.68363 -0.0125,2.49966 0.77818,0.77818 1.82795,0.8225 2.6148,0.11041 z m -53.06182,26.81117 c -2.80704,-1.76182 -1.56386,-6.44158 1.71121,-6.44158 1.31867,0 2.20942,0.44035 3.34419,1.65323 l 0.84839,0.90677 h 9.82322 9.82323 l 0.84839,-0.90677 c 1.13477,-1.21288 2.02552,-1.65323 3.34419,-1.65323 2.34842,0 3.95016,2.60175 3.0007,4.87413 -1.01822,2.43694 -3.75059,2.77492 -6.00052,0.74224 l -1.25783,-1.13637 h -9.75816 -9.75815 l -1.2721,1.14927 c -1.59716,1.44293 -3.23945,1.72697 -4.69676,0.81231 z m 3.01581,-1.49972 c 1.35713,-0.95057 0.57117,-3.34186 -1.09839,-3.34186 -0.91838,0 -2.03041,1.05156 -2.03041,1.92 0,0.79323 1.085,1.92 1.8488,1.92 0.31284,0 0.88884,-0.22416 1.28,-0.49814 z m 27.9112,-0.14186 c 0.352,-0.352 0.64,-0.928 0.64,-1.28 0,-0.84668 -1.10395,-1.92 -1.9748,-1.92 -1.72102,0 -2.53983,2.37118 -1.15399,3.34186 0.95721,0.67045 1.71996,0.62698 2.48879,-0.14186 z M 7.5849662,223.03289 C 7.092698,222.88682 6.120283,222.25266 5.4240446,221.62365 4.2459954,220.55935 4.0138901,220.47999 2.0790781,220.47999 0.07472812,220.47999 0,220.45124 0,219.67999 c 0,-0.77124 0.07472812,-0.8 2.0790781,-0.8 1.9319957,0 2.1679864,-0.0803 3.3358398,-1.1354 2.0463011,-1.84872 3.9943141,-1.99662 5.6620061,-0.42991 2.484236,2.33382 -0.182262,6.7003 -3.4919578,5.71821 z m 2.4150335,-2.17113 c 1.5158133,-1.30186 -0.2196522,-3.50912 -2.2236313,-2.82813 -1.3464723,0.45755 -1.3623171,2.70629 -0.023325,3.31025 0.8084582,0.36466 1.4117228,0.23522 2.2469563,-0.48212 z m 263.0601203,2.1451 c -2.19749,-0.63505 -3.12814,-3.67876 -1.68557,-5.51269 1.28335,-1.63152 4.08207,-1.67434 5.40214,-0.0827 1.18936,1.43412 1.54516,1.46847 15.20741,1.46847 h 12.97589 v 0.78992 0.78992 l -13.39297,0.0901 -13.39297,0.0901 -1.32795,1.2 c -0.73037,0.66 -1.45976,1.2 -1.62086,1.2 -0.1611,0 -0.48468,0.0589 -0.71908,0.1308 -0.23439,0.0719 -0.88511,-0.002 -1.44604,-0.16393 z m 2.70144,-2.44645 c 0.45932,-0.70102 0.46629,-0.88913 0.0594,-1.6038 -0.59665,-1.04797 -1.59917,-1.40609 -2.57469,-0.91974 -1.0967,0.54676 -1.10955,2.73308 -0.0193,3.27665 0.98722,0.49218 1.89543,0.22232 2.53456,-0.75311 z M 108.16,220.58301 c -0.264,-0.10769 -1.02042,-0.67892 -1.68093,-1.26941 l -1.20092,-1.07361 -20.399074,-0.0567 c -11.219494,-0.0312 -21.31599,-0.0152 -22.436656,0.0355 l -2.03758,0.0922 L 43.238456,201.15547 26.072073,183.99999 H 13.036036 0 v -0.96 -0.96 h 13.361121 13.361121 l 17.117757,17.12 17.117756,17.12 h 21.862159 c 13.193436,0 22.087356,-0.12052 22.430106,-0.30395 0.31236,-0.16718 1.03813,-0.74318 1.6128,-1.28 1.86955,-1.74642 4.68105,-1.18588 5.64696,1.12588 0.57536,1.37703 0.28038,2.75447 -0.8145,3.80343 -0.87209,0.83552 -2.62268,1.28992 -3.53528,0.91766 z m 2.45937,-2.0788 c 0.86692,-0.81442 0.93035,-1.45094 0.24248,-2.43301 -0.59546,-0.85014 -1.92142,-0.93749 -2.75666,-0.18161 -0.81739,0.73973 -0.75209,2.19722 0.12601,2.81226 0.96054,0.67279 1.51005,0.62731 2.38817,-0.19764 z M 0,210.10774 c 0,-0.39178 0.35999999,-1.02535 0.79999997,-1.40792 1.01578833,-0.88322 1.01578833,-1.79313 0,-2.80892 -0.84744968,-0.84745 -1.07700432,-2.05091 -0.39120197,-2.05091 1.3947738,0 2.9595721,2.36218 2.6517502,4.00301 C 2.7111429,209.70549 0,211.71168 0,210.10774 Z m 233.72105,-0.96756 c -1.38137,-0.60121 -2.04106,-1.67296 -2.04106,-3.316 0,-1.11342 0.18796,-1.58137 0.93539,-2.3288 0.88638,-0.88638 1.51653,-1.07831 3.12196,-0.95087 0.38354,0.0304 1.10354,-0.16014 1.6,-0.42351 0.49646,-0.26337 5.22175,-4.80834 10.50065,-10.09993 l 9.598,-9.62108 h 5.82254 5.82254 l 1.47892,-1.28 c 1.6308,-1.41145 2.98711,-1.65474 4.59359,-0.824 1.56446,0.80902 2.17883,3.44147 1.14699,4.91463 -1.34163,1.91543 -3.88108,2.06514 -5.68308,0.33503 -0.55962,-0.5373 -1.35087,-1.10488 -1.75833,-1.26128 -0.40746,-0.15641 -2.92746,-0.28413 -5.6,-0.28382 l -4.85917,6.4e-4 -9.67008,9.67945 c -5.31855,5.32369 -9.76625,9.78315 -9.88379,9.9099 -0.11755,0.12675 -0.24143,1.02426 -0.27531,1.99446 -0.0692,1.98243 -0.64458,2.86989 -2.32054,3.57925 -1.23925,0.52451 -1.26962,0.52423 -2.52922,-0.024 z m 2.44349,-1.71952 c 1.38487,-1.12141 0.64708,-3.26067 -1.12455,-3.26067 -1.77162,0 -2.50942,2.13926 -1.12455,3.26067 0.3935,0.31863 0.89955,0.57933 1.12455,0.57933 0.22501,0 0.73105,-0.2607 1.12455,-0.57933 z m 38.32425,-22.63881 c 0.84458,-0.59157 0.95473,-2.09261 0.20834,-2.839 -0.74639,-0.74639 -2.24743,-0.63623 -2.83899,0.20835 -0.68343,0.97572 -0.62797,1.42807 0.28731,2.34334 0.91527,0.91527 1.36762,0.97073 2.34334,0.28731 z m -133.25134,21.05103 c -2.19644,-1.77918 -1.75126,-5.0785 0.82948,-6.14748 0.53274,-0.22066 1.27308,-0.3216 1.64519,-0.22429 0.37211,0.0973 1.04531,0.0367 1.496,-0.13462 0.45068,-0.17135 4.90886,-4.30191 9.90705,-9.17902 4.99819,-4.87711 11.70599,-11.41619 14.90622,-14.53128 l 5.8186,-5.66381 64.56,-0.0162 64.56,-0.0162 v 0.8 0.8 h -64.09615 -64.09615 l -14.9044,14.54634 -14.9044,14.54635 -0.1433,1.98122 c -0.12552,1.73528 -0.27008,2.0945 -1.1645,2.89366 -1.2144,1.08506 -3.29906,1.24816 -4.41364,0.34532 z m 3.60056,-1.84599 c 1.08384,-1.65415 -0.93076,-3.66875 -2.58491,-2.58491 -0.89318,0.58524 -1.13804,2.30508 -0.4291,3.01401 0.70893,0.70893 2.42877,0.46408 3.01401,-0.4291 z m -37.15801,0.7448 c -0.352,-0.20287 -1.04708,-0.77449 -1.54462,-1.27027 l -0.90462,-0.90143 H 82.77426 60.317755 l -17.117756,-17.12 -17.117757,-17.12 h -4.221659 -4.221659 l -1.478925,1.28 c -1.993955,1.72576 -3.559885,1.78412 -5.151999,0.192 -1.4064886,-1.40648 -1.5083088,-3.16338 -0.26871,-4.63656 1.49436,-1.77595 3.889161,-1.64804 5.762985,0.30782 l 0.897463,0.93674 h 4.661252 4.661252 l 17.117757,17.12 17.117756,17.12 h 22.192735 22.19273 l 0.84839,-0.90677 c 1.67112,-1.78614 3.2893,-2.11367 5.07212,-1.02662 1.37212,0.83663 1.91622,2.70753 1.25066,4.30044 -0.7443,1.78135 -3.20983,2.66092 -4.83439,1.72465 z m 3.04,-1.8517 c 0.352,-0.352 0.64,-0.928 0.64,-1.28 0,-0.84668 -1.10395,-1.92 -1.97481,-1.92 -1.61086,0 -2.44392,2.03013 -1.3356,3.25481 0.69504,0.768 1.87175,0.74385 2.67041,-0.0548 z m -96.253474,-34 c 0.872587,-0.68592 0.961908,-1.66669 0.235853,-2.58971 -0.763289,-0.97037 -1.745309,-1.09162 -2.597182,-0.32069 -1.702731,1.54095 0.558304,4.32774 2.361329,2.9104 z m 289.081904,29.81545 c -1.52588,-1.8134 -0.65185,-5.41545 1.31405,-5.41545 0.0936,0 0.075,0.468 -0.0414,1.04 -0.50901,2.50292 -0.54487,3.0552 -0.21173,3.26109 0.42182,0.2607 0.47352,2.09891 0.059,2.09891 -0.16035,0 -0.66435,-0.44305 -1.12,-0.98455 z M 63.481054,192.18018 c -2.225283,-0.9685 -2.787866,-3.79304 -1.112669,-5.58634 0.774775,-0.8294 1.168666,-0.99385 2.380538,-0.99385 1.234355,0 1.673961,0.19198 2.931075,1.28 l 1.478925,1.28 h 17.881074 17.881073 l 1.47893,-1.28 c 1.22143,-1.05714 1.71385,-1.28 2.82826,-1.28 0.74213,0 1.68458,0.23482 2.09434,0.52182 0.98702,0.69134 1.70169,2.45664 1.44159,3.56088 -0.29441,1.24996 -1.66206,2.59665 -2.86655,2.82261 -1.196,0.22437 -2.11227,-0.17925 -3.59523,-1.5837 l -1.05758,-1.00161 -17.182417,-0.0943 c -9.450329,-0.0519 -17.66054,-0.007 -18.244918,0.0987 -0.584377,0.10617 -1.520377,0.63264 -2.08,1.16994 -1.630816,1.56576 -2.59096,1.8107 -4.256441,1.08584 z m 2.443494,-1.71952 c 0.793066,-0.64219 0.949459,-2.01673 0.316269,-2.77968 -0.477386,-0.57521 -2.27664,-0.63717 -2.816819,-0.097 -0.658669,0.65867 -0.465773,2.40244 0.327203,2.95786 0.91624,0.64176 1.29816,0.62749 2.173347,-0.0812 z m 44.649992,-0.20612 c 0.91527,-0.91527 0.97073,-1.36762 0.28731,-2.34334 -0.59157,-0.84458 -2.09261,-0.95474 -2.839,-0.20835 -1.13833,1.13833 -0.22489,3.13953 1.51169,3.31188 0.14,0.0139 0.608,-0.32819 1.04,-0.76019 z m 26.30948,0.94186 C 135.69788,190.52934 135.04,189.14109 135.04,187.30519 V 185.7786 L 122.32538,173.0493 109.61077,160.31999 H 86.724682 63.838593 L 36.479999,132.96 9.1214032,105.6 H 4.5607016 0 v -0.8 -0.8 h 5.0407016 5.0407014 l 27.358596,27.36 27.358594,27.36 h 22.875529 22.875528 l 12.97425,12.95999 12.97426,12.96 h 1.70291 c 1.50999,0 1.82619,0.12327 2.79093,1.088 0.88214,0.88215 1.088,1.33528 1.088,2.39495 0,2.61058 -2.93356,4.3458 -5.19598,3.07346 z m 3.01078,-1.646 c 1.15787,-1.04787 0.37242,-3.31659 -1.1444,-3.30551 -0.85037,0.006 -1.28026,0.29589 -1.74255,1.17415 -0.95512,1.81458 1.35359,3.51903 2.88695,2.13136 z m 145.29721,-3.61375 c -1.99546,-1.25091 -2.25882,-3.65386 -0.58402,-5.32866 1.59212,-1.59211 3.15805,-1.53375 5.152,0.192 l 1.47893,1.28 h 6.86053 6.86054 v 0.96 0.96 h -6.87908 -6.87908 l -1.2721,1.14927 c -1.61408,1.45823 -3.23727,1.72799 -4.73772,0.78739 z m 3.12798,-1.61666 c 0.352,-0.352 0.64,-0.928 0.64,-1.28 0,-0.84668 -1.10395,-1.92 -1.9748,-1.92 -1.72102,0 -2.53983,2.37119 -1.154,3.34186 0.95721,0.67045 1.71997,0.62698 2.4888,-0.14186 z m -108.55597,1.43641 c -0.96434,-0.54232 -1.84403,-1.99083 -1.84403,-3.03641 0,-0.9393 0.82238,-2.42731 1.66938,-3.02057 0.84234,-0.59 2.56822,-0.65132 3.55166,-0.1262 0.38443,0.20527 1.08074,0.78127 1.54735,1.28 l 0.84839,0.90677 h 23.57622 23.57623 l 0.96412,-0.96411 c 1.28007,-1.28007 1.92541,-1.59589 3.26106,-1.59589 2.43352,0 4.05934,2.71765 2.97996,4.98114 -1.11483,2.33781 -3.79917,2.62209 -5.99838,0.63524 l -1.25783,-1.13638 h -23.51816 -23.51815 l -1.2721,1.14927 c -1.48905,1.34527 -3.20326,1.69336 -4.56572,0.92714 z m 2.95597,-1.75641 c 1.24131,-1.2413 0.43858,-3.2 -1.31145,-3.2 -0.95265,0 -1.88855,0.98677 -1.88855,1.99121 0,0.7638 1.12678,1.84879 1.92,1.84879 0.352,0 0.928,-0.288 1.28,-0.64 z m 55.36,0 c 0.77818,-0.77817 0.8225,-1.82794 0.11041,-2.6148 -1.07814,-1.19133 -3.31041,-0.36569 -3.31041,1.2244 0,0.91838 1.05156,2.0304 1.92,2.0304 0.352,0 0.928,-0.288 1.28,-0.64 z m -89.15591,-6.30005 c -0.37176,-0.0731 -1.07965,-0.5543 -1.57308,-1.06934 -0.72948,-0.76141 -0.91767,-1.28165 -1.00691,-2.78352 l -0.10975,-1.84709 -12.39717,-12.39434 -12.39717,-12.39434 -27.200003,-0.0396 -27.199999,-0.0396 -11.2,-11.1453 C 44.86597,125.06628 43.713791,124.09157 42.382827,124.60231 c -0.709008,0.27207 -2.525072,-0.56034 -3.141007,-1.43971 -0.670711,-0.95758 -0.670711,-3.12763 0,-4.08521 1.947862,-2.78096 6.228323,-1.25048 6.374851,2.27934 0.03114,0.7498 0.07611,1.55943 0.09996,1.79919 0.02384,0.23976 4.903366,5.31535 10.843366,11.27908 l 10.8,10.84316 27.361557,9.6e-4 27.361556,9.6e-4 12.31844,12.34089 c 6.77515,6.7875 12.72464,12.55647 13.2211,12.81994 0.49646,0.26347 1.21646,0.45412 1.6,0.42368 1.60543,-0.12744 2.23558,0.0645 3.12196,0.95087 0.74743,0.74743 0.93538,1.21538 0.93538,2.3288 0,0.77031 -0.23334,1.72656 -0.52182,2.13842 -0.48085,0.6865 -2.32226,1.69578 -2.9079,1.59382 -0.13765,-0.024 -0.55444,-0.10339 -0.92619,-0.17648 z m 2.04471,-1.87809 c 0.93529,-0.6551 0.99269,-2.52869 0.0922,-3.0106 -0.84416,-0.45178 -2.11415,-0.4169 -2.50269,0.0687 -0.78056,0.97565 -0.76538,1.82206 0.0472,2.63468 0.93515,0.93515 1.38346,0.99342 2.36321,0.30718 z M 43.337141,122.37714 c 0.74639,-0.74639 0.636234,-2.24743 -0.208346,-2.839 -0.97975,-0.68624 -1.428064,-0.62797 -2.363216,0.30718 -0.812617,0.81262 -0.827792,1.65903 -0.04724,2.63468 0.44833,0.56038 2.017178,0.49876 2.618797,-0.10286 z m 44.342856,53.7112 c -0.264,-0.0996 -1.020416,-0.66425 -1.680921,-1.25474 l -1.200922,-1.07361 H 71.598206 58.39826 L 36.319999,151.68 14.241739,129.6 H 7.1208692 0 v -0.96 -0.96 h 7.4408692 7.4408698 l 22.07826,22.08 22.078261,22.07999 h 12.861405 12.861407 l 1.478925,-1.28 c 1.993955,-1.72575 3.559885,-1.78411 5.152,-0.192 1.151344,1.15135 1.376864,2.27057 0.775978,3.85103 -0.564932,1.48588 -2.912679,2.46376 -4.487978,1.86932 z m 2.488797,-1.86649 c 1.357126,-0.95057 0.571165,-3.34186 -1.098394,-3.34186 -0.918374,0 -2.030403,1.05157 -2.030403,1.92 0,0.79323 1.084992,1.92 1.848797,1.92 0.312841,0 0.888841,-0.22416 1.28,-0.49814 z M 179.76402,161.1164 c -0.96434,-0.54232 -1.84403,-1.99083 -1.84403,-3.0364 0,-0.93931 0.82238,-2.42732 1.66938,-3.02058 1.3113,-0.91847 2.92618,-0.64268 4.57062,0.78058 l 1.47893,1.28 21.98054,-0.009 21.98053,-0.009 6.72857,-6.31071 c 3.70072,-3.47089 14.24871,-13.33825 23.44,-21.92747 l 16.71143,-15.61678 v -4.80428 c 0,-5.06672 -0.10445,-5.53495 -1.59779,-7.1622 -1.14313,-1.24565 -1.40787,-2.439808 -0.84143,-3.795488 0.60821,-1.455657 1.65818,-2.124515 3.33504,-2.124515 2.00008,0 3.26418,1.291315 3.26418,3.334464 0,1.24207 -0.1817,1.664669 -1.2,2.791039 l -1.2,1.32735 -0.10004,5.69953 -0.10005,5.69952 -9.33995,8.72747 c -5.13698,4.80011 -12.50796,11.68626 -16.37996,15.30257 -3.872,3.61631 -10.46444,9.77526 -14.64986,13.68658 l -7.60986,7.11147 h -22.22922 -22.22921 l -1.2721,1.14927 c -1.48905,1.34527 -3.20326,1.69336 -4.56572,0.92714 z m 2.95597,-1.75641 c 1.24131,-1.2413 0.43858,-3.19999 -1.31145,-3.19999 -0.95265,0 -1.88855,0.98676 -1.88855,1.9912 0,0.7638 1.12678,1.84879 1.92,1.84879 0.352,0 0.928,-0.288 1.28,-0.64 z m 95.98265,-59.33909 c 0.20956,-0.252503 0.33519,-0.935502 0.27918,-1.517773 -0.13808,-1.435536 -1.50938,-2.167668 -2.65461,-1.417287 -1.04212,0.682829 -1.29082,1.65681 -0.66638,2.609824 0.59158,0.902866 2.40179,1.096416 3.04181,0.325236 z M 0,160.41609 c 0,-0.47644 0.32591778,-1.06035 0.79999997,-1.43327 C 1.24,158.63672 1.5999999,158.06945 1.5999999,157.72223 1.5999999,157.375 1.24,156.7309 0.79999997,156.2909 -0.04744971,155.44345 -0.27700435,154.24 0.408798,154.24 c 1.3947738,0 2.9595721,2.36217 2.6517502,4.00301 -0.2142221,1.1419 -1.4315384,2.55107 -2.42909849,2.81194 C 0.12658589,161.18697 0,161.0589 0,160.41609 Z m 270.87999,0.57352 c -1.78691,-0.78072 -2.68232,-2.89449 -1.95922,-4.6251 0.60344,-1.44423 1.65723,-2.12451 3.29096,-2.12451 1.11441,0 1.60683,0.22286 2.82826,1.28 l 1.47893,1.28 h 14.22053 14.22054 v 0.78755 0.78755 l -14.38488,0.0924 -14.38487,0.0925 -1.24007,1.21118 c -1.30076,1.27046 -2.8735,1.74127 -4.07018,1.21843 z m 2.3288,-1.80776 c 1.42385,-0.9973 0.55372,-3.34185 -1.24025,-3.34185 -0.89399,0 -1.88855,0.97202 -1.88855,1.84574 0,0.54873 1.44553,1.99425 1.99425,1.99425 0.23284,0 0.74339,-0.22416 1.13455,-0.49814 z m -27.02809,1.30977 c -1.77472,-0.77187 -2.51215,-3.09306 -1.56471,-4.92522 0.58046,-1.12248 1.73631,-1.6464 3.63219,-1.6464 h 1.49808 l 17.29079,-17.28 17.2908,-17.28 h 10.31607 10.31607 v 0.8 0.8 h -9.83665 -9.83665 l -17.04335,17.04335 -17.04335,17.04334 v 1.53255 c 0,1.9879 -0.72917,3.35696 -2.09097,3.92596 -1.32459,0.55345 -1.62783,0.55204 -2.92832,-0.0136 z m 2.71895,-1.78409 c 0.82667,-0.77016 0.88624,-1.49973 0.2022,-2.47633 -0.95057,-1.35713 -3.34186,-0.57117 -3.34186,1.09839 0,0.89133 1.04329,2.0304 1.85966,2.0304 0.31882,0 0.89482,-0.2936 1.28,-0.65246 z m -83.97546,0.65884 c -1.31895,-0.53291 -2.0442,-1.87752 -2.0442,-3.78993 v -1.77725 L 152,142.88929 141.12,131.97938 V 85.889879 39.80038 l -10.40663,-10.380191 -10.40662,-10.38019 -1.94077,-0.161284 c -1.68726,-0.140217 -2.0626,-0.29763 -2.87338,-1.205049 -1.38154,-1.546208 -1.31053,-3.279735 0.19604,-4.786309 1.04014,-1.040143 1.24383,-1.115659 2.59766,-0.963063 2.18609,0.246404 3.01326,1.226329 3.28971,3.897178 l 0.22062,2.131536 10.46168,10.465287 10.46169,10.465288 v 46.219448 46.219449 l 9.68,9.7342 c 5.32399,5.35381 10.2416,10.15025 10.92801,10.65876 0.96645,0.71597 1.59261,0.92456 2.77544,0.92456 1.17199,0 1.75402,0.19065 2.50111,0.81928 3.04314,2.56064 0.0253,7.40435 -3.68037,5.90709 z m 2.6846,-1.78452 c 1.35713,-0.95057 0.57117,-3.34185 -1.09839,-3.34185 -0.91838,0 -2.03041,1.05156 -2.03041,1.92 0,0.79322 1.085,1.92 1.8488,1.92 0.31284,0 0.88884,-0.22417 1.28,-0.49815 z M 119.33677,16.436845 C 119.70154,15.97311 120,15.39711 120,15.156845 120,14.483056 118.80022,13.44 118.02519,13.44 c -1.72102,0 -2.53982,2.371179 -1.15399,3.341854 1.01963,0.714177 1.70821,0.617824 2.46557,-0.345009 z M 144.38338,155.63756 C 143.03964,154.95896 142.4,153.7185 142.4,151.79118 v -1.52059 l -7.5165,-7.5404 -7.51649,-7.54039 -0.0835,-42.267608 -0.0835,-42.267605 -1.16668,-1.291331 c -1.43617,-1.589613 -1.75125,-2.830115 -1.10916,-4.366851 1.38096,-3.305101 6.59584,-2.285834 6.59584,1.289184 0,1.335654 -0.31582,1.980992 -1.59589,3.261059 L 128.96,50.510766 v 41.867225 41.867219 l 7.31973,7.31455 7.31973,7.31454 2.16581,0.22417 c 1.71344,0.17735 2.29081,0.37855 2.76432,0.96331 2.46634,3.0458 -0.70663,7.31279 -4.14621,5.57578 z m 2.74541,-1.57571 c 0.85014,-0.59546 0.93749,-1.92142 0.18161,-2.75666 -0.73973,-0.81739 -2.19722,-0.75209 -2.81226,0.12601 -0.68342,0.97572 -0.62796,1.42807 0.28731,2.34334 0.91527,0.91527 1.36762,0.97073 2.34334,0.28731 z m -17.92,-106.239996 c 0.85014,-0.595459 0.93749,-1.92142 0.18161,-2.756659 -0.73973,-0.817392 -2.19722,-0.752089 -2.81226,0.126007 -0.654,0.933712 -0.62929,1.27576 0.16508,2.285641 0.75736,0.962832 1.44594,1.059187 2.46557,0.345011 z m 43.71226,100.838326 c -1.38137,-0.60121 -2.04106,-1.67296 -2.04106,-3.316 0,-1.99191 1.29245,-3.26418 3.31593,-3.26418 1.22619,0 1.66923,0.19393 2.92407,1.28 l 1.47893,1.28 3.58054,0.0192 c 1.96929,0.0106 13.44453,0.14006 25.50053,0.28775 l 21.92,0.26852 15.76,-15.72654 15.76,-15.72654 v -6.30175 -6.30175 l -1.28,-1.478923 c -1.08606,-1.254845 -1.28,-1.697888 -1.28,-2.924077 0,-2.023481 1.27228,-3.315923 3.26418,-3.315923 1.67686,0 2.72683,0.668858 3.33504,2.124515 0.56644,1.35568 0.30171,2.54984 -0.84143,3.795485 -1.54114,1.679343 -1.59779,1.993483 -1.59779,8.860153 v 6.50222 l -16.0968,16.09444 -16.0968,16.09443 -26.09292,-0.22645 -26.09293,-0.22645 -1.09027,1.04645 c -1.70621,1.63764 -2.64531,1.88827 -4.32922,1.15539 z m 2.63336,-1.94551 c 0.81262,-0.81262 0.8278,-1.65903 0.0472,-2.63467 -0.40769,-0.50958 -2.23341,-0.52025 -2.73766,-0.016 -0.65866,0.65866 -0.46577,2.40243 0.32721,2.95785 0.97975,0.68624 1.42806,0.62797 2.36321,-0.30718 z m 88.0036,-48.96778 c 1.08383,-1.654147 -0.93076,-3.668746 -2.58491,-2.584909 -0.9966,0.652998 -1.15214,2.528746 -0.25311,3.052384 1.03549,0.603117 2.26975,0.399808 2.83802,-0.467475 z M 6.8799998,145.6 C 5.4064046,144.32461 5.3913441,144.32 2.7005377,144.32 0.03329748,144.32 0,144.31013 0,143.52 c 0,-0.77643 0.06538879,-0.8 2.219168,-0.8 2.6504677,0 3.6705944,-0.3414 5.0786052,-1.69963 C 8.1696941,140.17928 8.6100458,140 9.8040224,140 c 1.2316666,0 1.5882406,0.15642 2.3822266,1.04505 1.326392,1.48448 1.325696,3.57223 -0.0016,4.89956 -0.757686,0.75768 -1.209932,0.93539 -2.3805396,0.93539 -1.2261913,0 -1.6692319,-0.19394 -2.9240776,-1.28 z m 4.5180152,-1.13311 c 0.657054,-1.0028 0.229309,-2.20591 -0.980194,-2.757 -1.7384107,-0.79207 -3.2896404,1.69257 -1.914964,3.06725 0.7953142,0.79531 2.274634,0.63679 2.895158,-0.31025 z m 268.637405,1.59382 c -1.88876,-1.58929 -1.51704,-4.63657 0.69356,-5.68557 1.83523,-0.87087 2.71692,-0.64643 4.64826,1.18325 l 1.05725,1.00161 9.26275,0.098 9.26275,0.098 v 0.78198 0.78198 h -8.98104 c -9.56366,0 -9.63927,0.0111 -11.28075,1.65256 -1.23339,1.23339 -3.25629,1.27163 -4.66278,0.0882 z m 3.53937,-1.31031 c 0.32186,-0.29128 0.5852,-0.86728 0.5852,-1.28 0,-0.89133 -1.04328,-2.0304 -1.85966,-2.0304 -0.81254,0 -1.98034,1.17188 -1.98034,1.98726 0,1.59952 2.0352,2.42687 3.2548,1.32314 z M 72.03522,134.59343 c -2.622227,-1.45339 -1.880906,-5.89818 1.076246,-6.45295 1.444324,-0.27095 2.297076,0.0467 3.586416,1.33607 l 1.08345,1.08345 h 13.108409 13.108409 l 1.25783,-1.13638 c 2.23571,-2.01983 4.79332,-1.72334 5.93773,0.68832 1.41649,2.98504 -1.82871,6.10925 -4.73193,4.55549 -0.38288,-0.20491 -1.10449,-0.78091 -1.60358,-1.28 L 103.95076,132.48 H 91.034845 78.118922 l -1.478925,1.28 c -1.610073,1.3935 -3.105843,1.66423 -4.604777,0.83343 z m 2.716874,-1.39833 c 1.655372,-1.10533 0.588624,-3.94075 -1.303892,-3.46576 -1.201363,0.30153 -1.916544,1.55252 -1.423043,2.4892 0.481811,0.91448 0.907299,1.21165 1.734839,1.21165 0.352,0 0.798441,-0.10579 0.992096,-0.23509 z m 34.893576,-0.5799 c 1.16097,-1.77187 -0.80901,-3.74185 -2.58087,-2.58088 -1.55055,1.01596 -0.75244,3.40568 1.13741,3.40568 0.61736,0 1.074,-0.26093 1.44346,-0.8248 z M 153.27999,83.880183 V 34.32037 l -3.7749,-3.640186 c -2.0762,-2.002102 -5.37715,-5.188185 -7.33544,-7.080185 l -3.56052,-3.44 h -1.65657 c -1.45727,0 -1.78746,-0.130893 -2.74456,-1.088 -0.80526,-0.805256 -1.08769,-1.366585 -1.08681,-2.16 0.003,-2.521249 2.3153,-4.238826 4.66357,-3.463826 1.52052,0.501815 2.37249,1.928883 2.37404,3.97653 l 10e-4,1.584703 7.52,7.543916 7.51999,7.543915 V 82.808618 131.52 h 33.87621 33.87622 l 1.48378,-1.5863 c 1.36708,-1.46151 1.48379,-1.71573 1.48379,-3.232 0,-1.44492 0.13274,-1.77845 1.088,-2.7337 0.87677,-0.87677 1.33796,-1.088 2.37545,-1.088 2.51479,0 4.20057,2.52095 3.23867,4.84318 -0.56706,1.36899 -2.0425,2.19416 -3.92587,2.19562 -1.43358,9.6e-4 -1.67545,0.12681 -3.38894,1.7612 l -1.84517,1.76 h -35.09107 -35.09107 z m 77.44,43.799817 c 0.77818,-0.77818 0.8225,-1.82795 0.11041,-2.61481 -1.07814,-1.19133 -3.31041,-0.36569 -3.31041,1.2244 0,0.91838 1.05156,2.03041 1.92,2.03041 0.352,0 0.928,-0.288 1.28,-0.64 z M 138.06185,17.848798 c 0.27398,-0.391162 0.49815,-0.967162 0.49815,-1.28 0,-0.763808 -1.12678,-1.848798 -1.92,-1.848798 -0.84669,0 -1.92,1.10395 -1.92,1.974802 0,1.721022 2.37118,2.539828 3.34185,1.153996 z M 294.96401,131.65907 c -0.96092,-0.52139 -1.84402,-1.96722 -1.84402,-3.01907 0,-1.08413 0.89828,-2.51165 1.90953,-3.03459 1.58802,-0.82119 2.69914,-0.61732 4.33047,0.79459 1.39538,1.20769 1.59532,1.28 3.53946,1.28 h 2.06054 v 0.96 0.96 h -2.06054 c -1.94414,0 -2.14408,0.0723 -3.53946,1.28 -1.62742,1.40852 -2.83988,1.6234 -4.39598,0.77907 z m 2.95598,-1.73907 c 0.352,-0.352 0.64,-0.928 0.64,-1.28 0,-0.82418 -1.09582,-1.92 -1.92,-1.92 -0.82418,0 -1.92,1.09582 -1.92,1.92 0,0.82418 1.09582,1.92 1.92,1.92 0.352,0 0.928,-0.288 1.28,-0.64 z M 9.3851955,123.38877 C 8.8270535,123.13759 8.2133591,122.63866 8.0214301,122.28004 7.5470126,121.39358 5.7930037,120.96391 2.6399999,120.96178 0.03780923,120.96002 0,120.94854 0,120.16 v -0.8 h 3.3405375 3.3405378 l 1.4789244,-1.28 c 1.1190858,-0.96857 1.751816,-1.28 2.6004993,-1.28 2.224721,0 3.621282,1.32065 3.632385,3.43495 0.01369,2.60625 -2.586111,4.24359 -5.0076885,3.15382 z m 2.7793535,-1.72811 C 13.566392,120.52552 12.808366,118.4 11.001695,118.4 c -1.6596163,0 -2.3800492,2.38258 -1.0104934,3.34185 0.9162404,0.64176 1.2981604,0.62749 2.1733474,-0.0812 z M 180.42732,117.8599 c -2.34703,-2.23305 -5.30444,-5.0666 -6.57202,-6.29679 l -2.3047,-2.2367 -1.92672,-0.0458 c -1.4035,-0.0334 -2.11485,-0.21351 -2.61947,-0.66321 -2.61202,-2.32779 -1.24612,-6.21736 2.18335,-6.21736 1.14443,0 1.60377,0.1823 2.35685,0.93538 0.51446,0.51446 0.94388,1.19846 0.95427,1.52 0.10159,3.14433 -0.21794,2.69062 6.41545,9.10982 l 6.20566,6.00528 17.05765,0.0148 17.05765,0.0148 8.38235,-8.01719 c 4.61029,-4.40945 8.42289,-8.13108 8.47245,-8.27028 0.0495,-0.1392 -9.05846,-8.991365 -20.24,-19.671486 L 195.51999,64.622648 V 33.592245 2.5618436 l -1.11324,-1.2322261 -1.11324,-1.2322262 h 3.19324 c 1.75628,0 3.19324,0.03983386 3.19324,0.08851968 0,0.0486858 -0.504,0.62291533 -1.12,1.27606562 l -1.12,1.1875459 V 33.466617 c 0,29.586565 0.0236,30.833787 0.59024,31.235237 1.28879,0.913027 40.70304,38.777866 40.61936,39.022576 -0.0493,0.14409 -4.32608,4.29705 -9.504,9.22878 l -9.4144,8.96679 h -17.51828 -17.51827 z m -9.85598,-10.83358 c 0.19378,-0.23348 0.3065,-0.89864 0.25049,-1.47812 -0.17932,-1.85533 -2.31778,-2.29496 -3.36784,-0.69238 -1.20676,1.84174 1.70668,3.87027 3.11735,2.1705 z M 58.017428,119.07211 C 55.190501,117.29865 56.44116,112.64 59.74419,112.64 c 1.318675,0 2.209421,0.44034 3.344195,1.65322 L 63.936772,115.2 h 7.37215 7.372151 l 1.478924,-1.28 c 1.630804,-1.41146 2.987107,-1.65475 4.593591,-0.824 1.777888,0.91938 2.203817,3.63245 0.82712,5.26856 -1.494906,1.7766 -3.858823,1.65438 -5.698352,-0.29461 L 78.985748,117.12 h -7.491955 -7.491952 l -1.272099,1.14926 c -1.603651,1.4488 -3.238627,1.72736 -4.712314,0.80285 z m 3.10257,-1.63211 c 1.241306,-1.24131 0.438576,-3.2 -1.31145,-3.2 -0.952652,0 -1.88855,0.98676 -1.88855,1.9912 0,0.7638 1.126778,1.8488 1.92,1.8488 0.352,0 0.928,-0.288 1.28,-0.64 z m 23.094802,0.1104 c 0.717943,-0.64973 0.761312,-2.12857 0.08234,-2.80755 -0.527946,-0.52794 -1.65185,-0.65684 -2.249239,-0.25795 -0.585936,0.39124 -1.132019,1.66277 -0.894028,2.08171 0.886262,1.56013 2.021062,1.92486 3.060927,0.98379 z m 22.9852,1.92093 c -2.05335,-0.67647 -2.88,-1.91474 -2.88,-4.31406 0,-1.28391 -0.15913,-1.50306 -3.6,-4.95794 l -3.600003,-3.61465 -32.454492,-0.31444 c -23.682591,-0.22945 -32.633602,-0.21858 -33.117177,0.0402 -0.364478,0.19507 -1.071034,0.76301 -1.570124,1.2621 -1.876465,1.87647 -5.35562,0.76577 -5.849615,-1.86745 -0.303166,-1.61602 0.526225,-3.21026 1.987818,-3.82095 1.546839,-0.64631 2.719938,-0.33597 4.476341,1.18418 l 1.446176,1.25166 9.820537,0.0267 c 5.401296,0.0147 20.227071,0.12746 32.946169,0.25062 l 23.125628,0.22394 3.803272,3.79336 c 3.78625,3.77638 3.81094,3.79399 5.51437,3.93156 2.1313,0.17212 3.07789,0.62405 3.6584,1.74663 1.02788,1.98771 0.31297,4.11713 -1.65885,4.94101 -1.12802,0.47132 -1.28395,0.4894 -2.04845,0.23753 z m 1.84879,-1.88948 c 0.85014,-0.59546 0.93749,-1.92142 0.18161,-2.75666 -0.73973,-0.81739 -2.19722,-0.75209 -2.81226,0.12601 -0.68342,0.97572 -0.62796,1.42807 0.28731,2.34334 0.91527,0.91527 1.36762,0.97073 2.34334,0.28731 z M 28.854802,106.3504 c 0.834377,-0.7551 0.725374,-1.87369 -0.257958,-2.64718 -1.054017,-0.82909 -1.546131,-0.83394 -2.356845,-0.0232 -1.773238,1.77324 0.7541,4.35431 2.614803,2.6704 z m 218.222588,9.60778 c -0.98598,-0.69061 -1.70144,-2.4565 -1.44271,-3.56088 0.11305,-0.48252 0.72748,-1.42396 1.36542,-2.09209 l 1.15989,-1.21479 0.0959,-7.42882 0.0959,-7.428832 -11.13592,-11.04238 C 231.09115,77.117079 221.94033,68.046705 216.88075,63.034004 l -9.19924,-9.114006 -0.20289,-9.759999 c -0.20062,-9.651104 -0.45704,-11.84 -1.387,-11.84 -0.53634,0 -1.60911,-1.985776 -1.61043,-2.981037 -0.003,-2.042422 1.40524,-3.404732 3.5188,-3.404732 2.11356,0 3.52152,1.36231 3.51881,3.404732 -0.001,0.93236 -1.06147,2.981037 -1.54274,2.981037 -0.88758,0 -1.01882,1.825869 -0.80773,11.237737 l 0.21515,9.592682 20.47271,20.224789 20.47271,20.22479 -0.18763,7.332463 c -0.20021,7.82391 -0.19614,7.85165 1.42565,9.71867 1.30258,1.49954 1.2931,3.57807 -0.0223,4.89348 -0.74743,0.74743 -1.21538,0.93539 -2.3288,0.93539 -0.77031,0 -1.72656,-0.23335 -2.13842,-0.52182 z m 3.46525,-1.53728 c 0.20956,-0.2525 0.33519,-0.9355 0.27919,-1.51777 -0.13809,-1.43554 -1.50939,-2.16767 -2.65462,-1.41729 -1.04212,0.68283 -1.29082,1.65681 -0.66638,2.60982 0.59158,0.90287 2.40179,1.09642 3.04181,0.32524 z M 209.3348,30.510403 c 1.49286,-1.351028 -0.27435,-3.891377 -2.05481,-2.953757 -0.88429,0.465684 -1.18872,0.898258 -1.1951,1.698156 -0.0122,1.534988 2.05756,2.334655 3.24991,1.255601 z M 214.23999,112.64 c -1.4658,-1.26865 -1.50216,-1.28 -4.09842,-1.28 h -2.61949 l -18.12037,-18.118288 -18.12038,-18.118284 -1.39248,0.01923 c -2.82086,0.03893 -4.75661,-1.881862 -4.30775,-4.27447 0.4617,-2.461069 3.8915,-3.612816 5.81967,-1.954275 0.73409,0.63144 0.91292,1.106076 1.10087,2.921942 l 0.2244,2.168041 17.71589,17.718058 17.7159,17.718056 h 2.32016 c 2.20851,0 2.38069,-0.0547 3.57799,-1.13637 1.52363,-1.37651 3.03626,-1.70264 4.46655,-0.963 3.19318,1.65125 2.01898,6.57937 -1.56763,6.57937 -0.98216,0 -1.53969,-0.26286 -2.71491,-1.28 z m 4.05481,-0.8496 c 1.23595,-1.11853 0.30501,-3.3104 -1.40601,-3.3104 -0.76381,0 -1.8488,1.12677 -1.8488,1.92 0,0.84668 1.10395,1.92 1.97481,1.92 0.38214,0 0.95814,-0.23832 1.28,-0.5296 z M 169.75261,73.225137 c 1.49627,-0.681744 1.46239,-2.743968 -0.0564,-3.435997 -0.72493,-0.330297 -0.97379,-0.297062 -1.67385,0.223543 -1.12281,0.834982 -1.19857,1.800166 -0.21823,2.780499 0.93396,0.933964 0.87528,0.920956 1.94852,0.431955 z m 16.92484,37.567743 c -1.0143,-0.82161 -1.39746,-1.77498 -1.39746,-3.47714 v -1.52632 l -6.98867,-7.00918 -6.98868,-7.009177 -1.86317,-0.103539 c -1.58289,-0.08796 -2.01184,-0.252196 -2.85133,-1.091687 -0.81544,-0.815443 -0.98815,-1.243337 -0.98815,-2.448243 0,-1.244787 0.15411,-1.597789 1.04505,-2.393846 1.37348,-1.227203 3.44695,-1.305616 4.75573,-0.179847 0.73393,0.631296 0.91292,1.106154 1.10065,2.919917 l 0.2242,2.166016 6.51718,6.552521 c 6.23702,6.270835 7.97632,7.665805 9.04611,7.255285 0.88775,-0.34065 2.77434,0.53525 3.41465,1.58535 0.96111,1.57618 0.80713,2.96031 -0.47157,4.23901 -0.90771,0.90771 -1.31866,1.08682 -2.48,1.08088 -0.83299,-0.004 -1.6661,-0.22915 -2.07454,-0.56 z m 2.91516,-1.08774 c 1.49627,-0.68175 1.46239,-2.74397 -0.0564,-3.436 -0.72484,-0.33026 -0.97388,-0.29707 -1.67385,0.22308 -1.16529,0.86592 -1.22998,2.06652 -0.15684,2.91065 1.01271,0.7966 0.85694,0.77165 1.88713,0.30227 z M 170.2948,89.3904 c 1.06101,-0.960198 0.57011,-2.69382 -0.88452,-3.123696 -0.80506,-0.237913 -2.37029,0.874989 -2.37029,1.685316 0,1.6579 2.02392,2.55232 3.25481,1.43838 z m 124.8479,18.57334 c -2.19125,-1.08063 -2.57019,-4.13691 -0.70728,-5.70445 1.54027,-1.29605 3.26398,-1.14349 5.20528,0.46071 1.41973,1.17319 1.70628,1.28 3.43413,1.28 1.77293,0 1.88516,0.0454 1.88516,0.76272 0,0.71173 -0.1389,0.77156 -2.07772,0.89502 -1.80298,0.1148 -2.21555,0.26524 -3.12,1.13765 -0.99343,0.95823 -2.40541,1.69303 -3.22311,1.67732 -0.20854,-0.004 -0.83695,-0.23304 -1.39646,-0.50897 z m 2.23833,-1.45165 c 1.29866,-0.68356 1.56635,-1.87364 0.64936,-2.8869 -1.04786,-1.15787 -3.31659,-0.37242 -3.3055,1.1444 0.006,0.82507 0.28493,1.25726 1.1151,1.72802 0.79879,0.45297 0.70957,0.45213 1.54104,0.0145 z m -86.91472,-6.997098 c -0.83733,-0.65865 -1.5964,-2.4024 -1.49118,-3.425581 0.0322,-0.313177 0.042,-0.852508 0.0217,-1.198512 -0.0483,-0.824144 -21.30052,-22.172495 -22.65896,-22.761423 -0.56216,-0.243715 -1.24022,-0.359424 -1.5068,-0.257126 -0.76988,0.295427 -2.68147,-0.482896 -3.38608,-1.378672 -1.12658,-1.432205 -0.59493,-4.384189 0.93727,-5.204195 1.22707,-0.656707 3.13589,-0.393575 4.22881,0.582947 0.88787,0.793312 1.03937,1.163689 1.16041,2.837033 l 0.13921,1.924602 11.24464,11.211641 11.24465,11.211641 1.89376,0.142109 c 1.63304,0.122547 2.01851,0.281744 2.8,1.156375 1.55891,1.744729 1.11208,4.411219 -0.91272,5.446713 -1.09057,0.557726 -2.80927,0.424676 -3.71472,-0.287552 z m 3.31472,-1.286253 c 0.90044,-0.481904 0.84304,-2.3555 -0.0922,-3.010598 -0.97975,-0.686243 -1.42806,-0.627968 -2.36322,0.307184 -0.81261,0.812618 -0.82779,1.659027 -0.0472,2.634672 0.38854,0.485641 1.65853,0.520525 2.50269,0.06874 z M 185.84157,69.200414 c 0.45932,-0.701015 0.46628,-0.88913 0.0594,-1.603802 -0.25353,-0.445299 -0.76415,-0.920361 -1.1347,-1.055699 -0.8434,-0.308025 -2.16207,0.315117 -2.31177,1.092432 -0.45821,2.379286 2.08418,3.555546 3.38708,1.567069 z M 108.96,94.399997 l -1.47893,-1.28 H 58.136248 8.7914256 L 4.3957128,88.715856 C 0.22397841,84.536122 0,84.2469 0,83.039729 V 81.767741 L 4.8867989,86.646909 9.7735981,91.52608 58.789051,91.44304 107.80451,91.36 l 1.05774,-1.020374 c 2.0116,-1.940528 3.95917,-2.067303 5.59109,-0.363946 0.72202,0.753623 0.90666,1.240666 0.90666,2.391581 0,1.228009 -0.15708,1.585587 -1.04505,2.378989 -0.82086,0.733436 -1.34871,0.93375 -2.46054,0.93375 -1.19158,0 -1.64943,-0.202474 -2.89441,-1.28 z m 4.49911,-1.104266 c 0.66068,-1.008323 0.50833,-1.71318 -0.53915,-2.494467 -0.71737,-0.535062 -0.95102,-0.568064 -1.6,-0.226006 -0.92376,0.48688 -1.22862,0.911334 -1.23506,1.719542 -0.0136,1.702816 2.43785,2.430007 3.37421,1.000931 z m 186.86088,-6.255734 -1.47892,-1.28 H 278.77903 258.71699 L 245.91849,72.958443 C 233.67011,60.70714 231.76633,59.033323 230.77622,59.645249 c -0.15196,0.09391 -0.79622,0.0272 -1.4317,-0.148272 -1.57088,-0.433737 -2.46453,-1.643747 -2.46453,-3.336979 0,-3.374934 3.91769,-4.69544 6.23119,-2.100304 0.41554,0.466125 0.64728,1.219197 0.67829,2.204167 0.0259,0.822876 0.0659,1.675164 0.0888,1.893977 0.023,0.218813 5.73872,6.086813 12.70171,13.04 l 12.65999,12.642159 h 19.80055 19.80055 l 1.47892,-1.28 c 2.25248,-1.949507 4.64,-1.696729 4.64,0.491258 v 1.108742 l -0.64,-0.64 c -0.352,-0.352 -0.928,-0.64 -1.28,-0.64 -0.86844,0 -1.92,1.112029 -1.92,2.030404 0,0.934195 0.92881,1.809596 1.92,1.809596 0.41228,0 1.01294,-0.238317 1.3348,-0.529597 0.55646,-0.503583 0.5852,-0.47398 0.5852,0.602679 0,0.903705 -0.14534,1.171225 -0.72,1.325225 -1.59754,0.428125 -2.45057,0.193472 -3.92,-1.078307 z M 231.68081,57.439013 c 0.9229,-1.112029 -0.0409,-3.359015 -1.44082,-3.359015 -0.7899,0 -1.84,1.151879 -1.84,2.018352 0,1.204698 0.62317,1.821648 1.84,1.821648 0.5729,0 1.22127,-0.216445 1.44082,-0.480985 z M 74.559998,85.85481 c -0.264,-0.09606 -0.876,-0.543635 -1.36,-0.994605 -0.701178,-0.653324 -0.88,-1.104675 -0.88,-2.221113 0,-0.770643 0.148268,-1.678211 0.329484,-2.016819 0.499613,-0.933536 2.025332,-1.582275 3.721219,-1.582275 h 1.522484 l 8.733407,-8.712243 8.733405,-8.712243 V 37.387218 13.158924 l -1.28,-1.478924 c -1.42465,-1.646053 -1.654627,-2.9873308 -0.796688,-4.6464053 0.611978,-1.1834326 1.38183,-1.5935949 2.991097,-1.5935949 2.603908,0 4.257774,2.637055 3.13306,4.9955992 C 99.123053,11.032019 98.747341,11.52 98.57255,11.52 c -0.17479,0 -0.55406,0.360578 -0.842822,0.801285 -0.476397,0.727072 -0.519984,3.07412 -0.470627,25.341175 l 0.05439,24.539887 -9.025215,9.029385 -9.025219,9.029385 -0.08597,1.682717 c -0.04729,0.925491 -0.252759,1.994359 -0.456608,2.375258 -0.715674,1.337248 -2.696522,2.068419 -4.160486,1.535718 z m 2.294803,-1.904409 c 1.157875,-1.047863 0.372419,-3.316589 -1.1444,-3.305504 -1.401533,0.01024 -2.369853,1.465187 -1.753757,2.6351 0.695136,1.320007 1.878006,1.593629 2.898157,0.670404 z M 97.741853,9.8487978 c 0.273977,-0.3911613 0.498144,-0.9567098 0.498144,-1.2567744 0,-0.6040499 -1.438071,-1.8720236 -2.123155,-1.8720236 -0.703492,0 -1.716845,1.2142096 -1.716845,2.0571426 0,1.7138646 2.361593,2.4711726 3.341856,1.0716554 z M 281.82631,77.114993 c -0.86859,-0.683235 -1.6916,-2.636327 -1.34632,-3.194995 0.58752,-0.950624 -0.73834,-2.663047 -6.47919,-8.36825 -3.30044,-3.279955 -6.31534,-6.122899 -6.69977,-6.317651 -0.38443,-0.194755 -1.32439,-0.354099 -2.0888,-0.354099 -0.76441,0 -1.7107,-0.224742 -2.10287,-0.499424 -0.79323,-0.555606 -1.66937,-2.065187 -1.66937,-2.876323 0,-1.120198 1.0362,-2.667491 2.13584,-3.189302 2.46656,-1.170458 4.90416,0.478944 4.90416,3.3184 0,0.867996 0.22408,1.838899 0.52978,2.295446 1.02584,1.532026 11.77555,12.147244 12.78738,12.627388 0.56345,0.267373 1.24765,0.400484 1.52045,0.295802 0.77967,-0.299187 2.68833,0.472912 3.39739,1.374333 1.01717,1.293129 0.88252,3.425392 -0.29038,4.598294 -1.17291,1.172906 -3.30517,1.307558 -4.5983,0.290381 z m 3.85525,-1.834579 c 0.45932,-0.701015 0.46629,-0.88913 0.0594,-1.603802 -0.59665,-1.047965 -1.59917,-1.406086 -2.57469,-0.919737 -1.0967,0.546761 -1.10955,2.733081 -0.0193,3.276649 0.98722,0.492182 1.89543,0.222317 2.53456,-0.75311 z M 266.29479,56.750401 c 1.23596,-1.118524 0.30502,-3.310403 -1.406,-3.310403 -0.76381,0 -1.8488,1.126778 -1.8488,1.92 0,0.846685 1.10395,1.92 1.9748,1.92 0.38215,0 0.95815,-0.238317 1.28,-0.529597 z M 100.64,77.185124 c -1.012435,-0.201469 -2.374006,-1.681136 -2.585795,-2.810067 -0.229479,-1.223226 0.503744,-2.979987 1.504653,-3.605066 0.373478,-0.233241 1.471922,-0.468134 2.440982,-0.521984 l 1.76193,-0.09791 4.59911,-4.590909 4.59912,-4.590909 V 48.39347 35.818664 l -1.09337,-1.093369 c -1.29978,-1.299779 -1.59678,-2.091206 -1.32615,-3.533827 0.58096,-3.096756 5.09955,-3.713208 6.54206,-0.892506 0.71445,1.397023 0.43086,2.743933 -0.92254,4.381744 l -1.28,1.548979 V 48.91109 61.592491 l -4.85829,4.865888 -4.85829,4.865884 -0.13723,1.897155 c -0.0943,1.30408 -0.3512,2.165053 -0.82171,2.754119 -0.69357,0.868342 -2.38868,1.443568 -3.56448,1.209587 z m 1.54103,-1.71303 c 0.86355,-0.454535 1.16773,-0.891584 1.17407,-1.6869 0.0122,-1.534988 -2.05756,-2.334655 -3.24991,-1.255599 -0.834374,0.7551 -0.725369,1.873689 0.25796,2.647177 0.98809,0.777235 0.92255,0.766586 1.81788,0.295322 z M 115.2548,33.070402 c 1.06101,-0.960198 0.57011,-2.69382 -0.88452,-3.123696 C 113.56522,29.708792 112,30.821696 112,31.632023 c 0,1.657899 2.02391,2.552318 3.2548,1.438379 z M 3.915198,71.595377 C 0.41375375,68.085505 0,67.553355 0,66.559822 c 0,-1.110854 2.9424903e-4,-1.11064 4.2442901,3.124621 l 4.2442898,4.235555 H 32.325717 56.162856 L 69.521425,60.558587 82.879997,47.197176 v -7.225961 c 0,-3.974279 0.09554,-14.593642 0.212304,-23.598587 L 83.304605,0 h 0.886787 0.886791 L 84.942525,4.5599999 C 84.867914,7.0679998 84.739943,17.896755 84.658148,28.623901 L 84.509431,48.1278 70.81611,61.823899 57.122789,75.519998 H 32.476591 7.8303959 Z M 292.59595,56.92084 280.39191,44.712962 278.67595,44.574309 c -2.13614,-0.172608 -3.08244,-0.623923 -3.66326,-1.747104 -1.04793,-2.02648 -0.0723,-4.451974 2.04596,-5.086637 1.05503,-0.316092 1.43276,-0.287216 2.4294,0.185722 1.45715,0.691462 2.11194,1.896842 2.11194,3.887779 v 1.52585 L 293.3024,55.05811 c 11.51683,11.532365 11.70078,11.736842 11.6,12.894397 l -0.10241,1.176208 z M 279.53911,42.095733 c 0.66926,-1.021427 0.50702,-1.714144 -0.59378,-2.535251 -0.82559,-0.615814 -0.96149,-0.630006 -1.76,-0.183818 -1.71912,0.960589 -1.03912,3.503335 0.93688,3.503335 0.60528,0 1.07246,-0.258586 1.4169,-0.784266 z M 6.9554545,55.406693 C 0.28664606,48.701595 0,48.362117 0,47.169247 v -1.244141 l 7.4425006,7.437446 7.4425004,7.437446 h 19.995142 19.995142 l 6.162355,-6.184009 6.162358,-6.18401 0.0013,-1.57599 c 0.0029,-3.825306 3.46638,-5.692413 5.950803,-3.20799 0.891936,0.891936 1.088,1.330195 1.088,2.432 0,1.101804 -0.196064,1.540064 -1.088,2.431999 -0.926416,0.926416 -1.309741,1.088 -2.581037,1.088 -0.821171,0 -1.736406,0.130247 -2.033856,0.289437 -0.297449,0.159191 -3.275984,3.037731 -6.618963,6.396755 l -6.078227,6.107318 -20.964543,0.0032 -20.964546,0.0032 z M 71.928794,47.501855 c 1.357127,-0.95057 0.571165,-3.341856 -1.098393,-3.341856 -0.918374,0 -2.030403,1.051561 -2.030403,1.92 0,0.793222 1.084992,1.919999 1.848796,1.919999 0.312842,0 0.888842,-0.224166 1.28,-0.498143 z m 94.951196,11.326726 c -1.98275,-1.090381 -2.38558,-3.686141 -0.84692,-5.457447 0.50219,-0.578124 1.07819,-1.36567 1.28,-1.750099 0.26625,-0.507181 0.36653,-7.136163 0.36549,-24.159999 l -0.001,-23.4610361 -1.78412,-2 L 164.10887,0 h 1.17359 c 0.99035,0 1.39207,0.23732579 2.57286,1.52 l 1.39926,1.5199999 0.0127,23.9049421 c 0.009,17.359037 0.11383,24.126903 0.38203,24.715511 0.20312,0.445814 0.69427,1.023491 1.09144,1.283725 1.06712,0.699203 1.56113,2.456259 1.09106,3.880585 -0.6345,1.92256 -3.20679,2.963469 -4.95183,2.003818 z m 3.30341,-2.285632 c 0.36614,-0.767648 0.35615,-1.006487 -0.0693,-1.655728 -0.68283,-1.042128 -1.65681,-1.290823 -2.60982,-0.666384 -0.92683,0.607283 -1.06267,2.095107 -0.2642,2.893584 0.82219,0.822188 2.42718,0.51056 2.94327,-0.571472 z m 11.93182,-3.229514 c -1.02351,-0.567286 -1.61011,-1.699376 -1.62389,-3.133974 -0.009,-0.926551 0.26405,-1.498723 1.26866,-2.659462 l 1.28,-1.478925 v -9.081075 -9.081075 l -1.28,-1.478925 c -1.72575,-1.993956 -1.78411,-3.559886 -0.192,-5.152 0.77676,-0.776754 1.37633,-1.088 2.0959,-1.088 1.39379,0 2.79319,0.792775 3.37069,1.909526 0.87099,1.684307 0.56961,2.844836 -1.23298,4.747905 l -1.00161,1.057431 -0.0778,8.581029 c -0.0827,9.112803 0.0493,10.177283 1.36854,11.041699 1.08257,0.709328 1.64294,2.734067 1.11167,4.016685 -0.83656,2.019638 -3.18857,2.851465 -5.08715,1.799161 z m 3.34394,-1.937769 c 0.61939,-0.945319 0.37722,-1.926029 -0.64024,-2.592695 -1.76878,-1.158944 -3.738,1.372237 -2.23607,2.87417 0.78322,0.783225 2.27429,0.637309 2.87631,-0.281475 z m -0.27979,-26.471447 c 0.40734,-0.38268 0.74062,-0.95868 0.74062,-1.28 0,-0.798949 -1.12846,-1.86422 -1.9748,-1.86422 -1.72102,0 -2.53983,2.37118 -1.15399,3.341855 0.96054,0.67279 1.51005,0.627314 2.38817,-0.197635 z m 60.07512,27.950432 c -3.06386,-1.924313 -1.66638,-6.454652 1.99109,-6.454652 0.79007,0 1.75102,-0.159152 2.13545,-0.353671 0.99545,-0.503696 19.68734,-19.149778 20.24003,-20.190438 0.25241,-0.475259 0.45893,-1.487218 0.45893,-2.248798 0,-1.602801 0.59621,-2.602534 1.9783,-3.31724 2.81911,-1.457816 6.06967,1.792743 4.61185,4.611848 -0.71471,1.38209 -1.71444,1.978299 -3.31724,1.978299 -0.76158,0 -1.77354,0.206518 -2.2488,0.458928 -1.04066,0.552695 -19.68674,19.244579 -20.19044,20.240035 -0.19452,0.384428 -0.35367,1.354156 -0.35367,2.15495 0,2.863197 -2.95143,4.599254 -5.3055,3.120739 z m 3.0655,-1.654653 c 0.352,-0.352 0.64,-0.928 0.64,-1.28 0,-0.824179 -1.09582,-1.92 -1.92,-1.92 -0.82418,0 -1.92,1.095821 -1.92,1.92 0,0.82418 1.09582,1.92 1.92,1.92 0.352,0 0.928,-0.288 1.28,-0.64 z M 275.08566,24.4552 c 1.16098,-1.771864 -0.80901,-3.741846 -2.58087,-2.580876 -1.55055,1.015956 -0.75243,3.405675 1.13742,3.405675 0.61736,0 1.07399,-0.260925 1.44345,-0.824799 z m 27.47433,25.780226 c -2.84017,-2.878407 -3.83498,-3.500858 -5.48968,-3.434874 -2.56749,0.102384 -4.3292,-2.099094 -3.54758,-4.433149 0.68278,-2.038879 2.71364,-3.004406 4.62712,-2.199852 1.34811,0.566841 2.08948,1.79014 2.06711,3.410867 -0.0242,1.754806 0.26703,2.265408 2.72282,4.773644 1.79224,1.830509 2.05407,2.248138 1.96406,3.132794 l -0.10385,1.020726 z m -4.50286,-5.618285 c 1.37468,-1.374675 -0.17655,-3.859321 -1.91496,-3.067248 -0.43538,0.198374 -0.95391,0.716902 -1.15229,1.152285 -0.79207,1.738409 1.69258,3.289638 3.06725,1.914963 z M 11.648,48.511998 c -1.63866,-1.638659 -1.403095,-3.69759 0.641595,-5.607779 L 13.12,42.128437 V 29.385141 16.641843 l -1.149267,-1.272101 c -1.448801,-1.603649 -1.727354,-3.238624 -0.802844,-4.712312 1.773458,-2.8269288 6.43211,-1.576269 6.43211,1.726762 0,1.318676 -0.440345,2.209422 -1.65322,3.344195 L 15.04,16.576774 v 12.65215 12.65215 l 1.279999,1.478925 c 0.951113,1.098924 1.28,1.75783 1.28,2.564406 0,2.313827 -1.369365,3.675593 -3.696108,3.675593 -0.901523,0 -1.416038,-0.248147 -2.255891,-1.088 z m 4.228566,-1.663766 c 0.270002,-1.075773 -0.10546,-1.903993 -1.060394,-2.339091 -0.724925,-0.330298 -0.973783,-0.297062 -1.673849,0.223542 -1.401831,1.042477 -1.180538,2.65784 0.446567,3.259783 0.884638,0.32727 2.066749,-0.263988 2.287676,-1.144234 z M 15.414802,13.870403 C 16.650758,12.75188 15.719816,10.56 14.008798,10.56 13.24499,10.56 12.16,11.686776 12.16,12.48 c 0,0.846685 1.10395,1.92 1.974802,1.92 0.382142,0 0.958142,-0.238319 1.28,-0.529597 z m 12.78042,35.283032 c -1.023506,-0.567286 -1.610104,-1.699376 -1.623884,-3.133974 -0.0089,-0.92655 0.264049,-1.498723 1.268661,-2.659462 l 1.28,-1.478925 v -4.21407 -4.214071 l 10.24,-10.257861 10.239999,-10.257862 0.0013,-1.588605 c 0.0016,-2.085917 0.868784,-3.5253105 2.374413,-3.941035 2.720266,-0.7511017 5.033475,1.2447129 4.533232,3.911232 -0.336566,1.794052 -1.484221,2.662241 -3.734352,2.825001 l -1.934438,0.139918 -9.900067,9.896204 -9.900067,9.896202 v 4.054813 4.054809 l 0.949958,0.896608 c 1.249303,1.179139 1.731239,2.411277 1.475773,3.773018 -0.418889,2.232879 -3.200151,3.445571 -5.270508,2.29806 z m 3.343894,-1.937702 c 0.660678,-1.008323 0.508329,-1.713181 -0.539156,-2.494467 -0.717369,-0.535063 -0.951016,-0.568064 -1.6,-0.226007 -0.945722,0.498458 -1.228802,0.911456 -1.235061,1.801882 -0.01192,1.695494 2.429651,2.360182 3.374217,0.918592 z m 22.915685,-35.26533 c 0.768004,-0.695033 0.743856,-1.871745 -0.0548,-2.6704033 -0.814803,-0.8148016 -1.745197,-0.8148016 -2.56,0 -1.773238,1.7732373 0.754099,4.3543163 2.614803,2.6704033 z m -5.693747,35.273615 c -1.382608,-0.60705 -2.041056,-1.678035 -2.041056,-3.319837 0,-1.113421 0.187956,-1.58137 0.935386,-2.328797 0.886378,-0.88638 1.516528,-1.07831 3.121962,-0.950873 1.221071,0.09692 2.411091,-0.79752 6.262652,-4.707143 3.72689,-3.783068 3.76,-3.829942 3.76,-5.322915 0,-1.982108 0.732979,-3.332256 2.124742,-3.913772 3.127469,-1.30674 6.102093,2.091419 4.381075,5.004868 -0.682544,1.155455 -1.450076,1.516472 -3.592563,1.689794 l -1.726745,0.139693 -4.113254,4.146595 c -3.982474,4.014752 -4.113255,4.190073 -4.113255,5.514118 0,3.238458 -2.405868,5.18679 -4.998944,4.048269 z m 2.613488,-1.929475 c 0.915274,-0.915271 0.970733,-1.36762 0.287312,-2.343341 -0.591568,-0.844579 -2.092608,-0.954736 -2.838998,-0.208346 -0.74639,0.746391 -0.636234,2.247431 0.208346,2.838999 0.975721,0.68342 1.42807,0.627961 2.34334,-0.287312 z m 14.280259,-14.14414 c 0.321859,-0.291278 0.585197,-0.867278 0.585197,-1.28 0,-0.918374 -1.051562,-2.030404 -1.92,-2.030404 -0.846685,0 -1.92,1.10395 -1.92,1.974803 0,1.610868 2.030121,2.443923 3.254803,1.335601 z M 238.15723,42.135925 c -1.25858,-0.698979 -1.73988,-1.713145 -1.66613,-3.510851 0.0376,-0.915792 0.0504,-1.882813 0.0286,-2.148934 -0.0218,-0.266122 -1.40493,-2.354122 -3.07353,-4.64 L 230.41234,27.679999 230.40617,13.84 230.39999,0 h 0.8 0.8 v 13.446588 13.446589 l 2.74939,3.753411 c 3.13092,4.274272 3.72567,4.873411 4.8377,4.873411 1.37639,0 2.89037,0.939731 3.46504,2.150765 1.42763,3.008502 -1.95752,6.096473 -4.89489,4.465161 z m 3.26462,-1.887129 c 0.27398,-0.391159 0.49814,-0.901706 0.49814,-1.134544 0,-0.583636 -1.46098,-1.994253 -2.06545,-1.994253 -0.75294,0 -1.77455,1.184304 -1.77455,2.057142 0,1.713866 2.3616,2.471174 3.34186,1.071655 z m -24.04559,0.0846 c -0.70809,-0.431747 -1.12864,-1.013757 -1.36394,-1.887619 -0.42077,-1.562614 -0.0559,-2.668259 1.3673,-4.143353 l 1.02037,-1.057575 0.0883,-16.622425 L 218.57666,0 h 0.79167 0.79166 v 16.341037 c 0,11.819079 0.1031,16.533676 0.37257,17.03718 0.20491,0.382876 0.78091,1.104486 1.28,1.603577 0.74553,0.745536 0.90743,1.182595 0.90743,2.44967 0,1.364804 -0.13013,1.656496 -1.13113,2.535386 -1.3375,1.174342 -2.69417,1.29239 -4.2126,0.366546 z m 3.15854,-1.502995 c 1.1815,-1.069248 0.36831,-3.310403 -1.20118,-3.310403 -0.96096,0 -2.1291,1.483101 -1.86692,2.370281 0.42143,1.426055 1.99751,1.908992 3.0681,0.940122 z m 81.35531,-8.452129 -2.90987,-2.913699 -1.7976,-0.07136 c -1.25095,-0.04966 -2.00947,-0.260183 -2.49429,-0.692288 -2.61573,-2.331291 -1.25305,-6.220929 2.17941,-6.220929 1.14442,0 1.60377,0.182305 2.35684,0.935385 0.88727,0.887259 1.07862,1.517021 0.9502,3.12714 -0.0851,1.067284 0.50183,1.978063 2.7634,4.287947 1.88007,1.92024 2.05711,2.21643 1.96406,3.285986 l -0.10227,1.175516 z m -3.58241,-5.599084 c 1.04854,-2.301304 -1.79246,-3.951428 -3.17371,-1.84337 -0.40303,0.615094 -0.43165,0.93091 -0.14199,1.566638 0.67559,1.482773 2.6896,1.650864 3.3157,0.276732 z M 0,26.548741 c 0,-0.358193 0.24432636,-1.024148 0.54294747,-1.479902 0.51059663,-0.779269 0.51059663,-0.88501 0,-1.774674 -0.55774573,-0.971816 -0.73728409,-2.494166 -0.29414947,-2.494166 0.63528479,0 1.6571281,1.067747 1.9915294,2.080993 0.4535723,1.374337 -0.025747,3.116384 -1.0560186,3.838015 C 0.26447245,27.363285 0,27.325263 0,26.548741 Z m 243.58936,-4.648167 c -1.88415,-1.31971 -2.06946,-3.839904 -0.40232,-5.471436 0.51094,-0.500026 1.08287,-1.314513 1.27096,-1.80997 0.204,-0.537347 0.34199,-3.668505 0.34199,-7.7600002 V 0 h 0.8 0.8 v 7.3405374 7.3405376 l 1.28,1.478924 c 1.0717,1.23825 1.28,1.706092 1.28,2.874847 0,1.959325 -1.38421,3.365153 -3.31341,3.365153 -0.7393,0 -1.66505,-0.224741 -2.05722,-0.499425 z m 3.4591,-1.7564 c 0.97245,-1.817044 -0.77171,-3.806048 -2.40125,-2.738332 -1.04212,0.682828 -1.29082,1.656811 -0.66638,2.609826 0.67569,1.031227 2.54265,1.109436 3.06763,0.128506 z M 68.601054,18.10402 c -1.371651,-0.602242 -2.041056,-1.676591 -2.041056,-3.27576 0,-1.114404 0.222861,-1.60683 1.28,-2.82826 l 1.28,-1.478925 V 5.2605374 0 h 0.8 0.8 v 4.7791678 c 0,2.6285427 0.152832,5.1845426 0.339625,5.6800002 0.186797,0.495457 0.798797,1.37683 1.36,1.958605 0.83409,0.864661 1.020375,1.316299 1.020375,2.473846 0,1.152119 -0.178941,1.590509 -0.96,2.351899 -1.16929,1.139847 -2.546746,1.44542 -3.878944,0.860502 z m 2.880268,-2.198686 c 0.613975,-0.825355 0.628077,-0.961702 0.18201,-1.76 -0.957459,-1.713515 -3.503334,-1.040506 -3.503334,0.926116 0,1.006097 1.075811,1.961162 2.047894,1.818047 0.334342,-0.04922 0.907386,-0.492097 1.27343,-0.984163 z M 258.68799,13.952 c -1.59211,-1.592114 -1.53376,-3.158044 0.192,-5.1520003 l 1.28,-1.4789244 V 3.6605375 C 260.15999,0.01333938 260.16278,0 260.92545,0 c 0.75595,0 0.76692,0.04556319 0.88178,3.6640594 0.11419,3.5969557 0.13463,3.6833983 1.11614,4.7199999 1.80081,1.9018767 2.10191,3.0626577 1.2312,4.7464147 -0.57749,1.116751 -1.9769,1.909526 -3.37069,1.909526 -0.71956,0 -1.31913,-0.311246 -2.09589,-1.088 z m 3.85386,-1.223202 c 0.27397,-0.391162 0.49814,-0.921881 0.49814,-1.179376 0,-0.642585 -1.27677,-1.9494223 -1.90458,-1.9494223 -0.92372,0 -1.93542,0.9581303 -1.93542,1.8329483 0,1.846722 2.32464,2.748132 3.34186,1.29585 z m 13.01357,1.491912 c -1.77594,-1.494361 -1.64803,-3.889162 0.30782,-5.7629858 0.93215,-0.8930576 0.93675,-0.9160179 0.93675,-4.6775934 V 0 h 0.96 0.96 v 3.6605375 3.6605378 l 1.28,1.4789244 c 1.72576,1.9939563 1.78412,3.5598863 0.192,5.1520003 -1.40649,1.406488 -3.16339,1.508308 -4.63657,0.26871 z m 3.53937,-1.310307 c 1.02024,-0.923297 0.7292,-2.245701 -0.65476,-2.9751432 -0.64873,-0.3419235 -0.88291,-0.3091084 -1.6,0.2241992 -1.03251,0.767889 -1.2341,1.851509 -0.49616,2.666929 0.68233,0.753963 1.96728,0.793206 2.75092,0.08402 z M 30.879999,12.428581 C 29.690047,11.774187 29.13423,10.771744 29.13423,9.2799997 c 0,-2.3350402 1.349183,-3.5199999 4.007836,-3.5199999 1.463232,0 1.584016,-0.078331 4.440925,-2.8799999 C 40.272405,0.24258594 40.625432,0 41.774168,0 h 1.254397 l -3.239283,3.2799999 c -3.550525,3.5951538 -4.058912,4.3317829 -3.773744,5.4679854 0.283411,1.1292025 -0.617245,2.9730377 -1.734438,3.5507607 -1.123082,0.580767 -2.486482,0.632814 -3.401101,0.129835 z m 2.857142,-1.731439 c 1.162096,-1.1620943 0.130912,-3.5151525 -1.438649,-3.2828568 -0.392856,0.058143 -0.995422,0.4837322 -1.339034,0.9457536 -0.533307,0.717086 -0.566122,0.9512716 -0.224199,1.5999999 0.220303,0.4179783 0.558993,0.8657563 0.752645,0.9950603 0.597388,0.398886 1.721292,0.26999 2.249237,-0.257957 z M 149.568,10.752 C 148.6075,9.7915072 148.48,9.4674855 148.48,7.9871751 V 6.3103508 L 145.3801,3.1551754 142.2802,0 h 1.23692 c 1.10673,0 1.49651,0.25261666 3.70315,2.3999999 2.38294,2.3189497 2.5188,2.4000403 4.02298,2.4011961 1.89696,0.00147 3.37016,0.8226595 3.93886,2.1956246 0.9619,2.32223 -0.72388,4.8431794 -3.23867,4.8431794 -1.03749,0 -1.49868,-0.211236 -2.37544,-1.088 z m 3.7668,-1.0415965 c 0.768,-0.6950339 0.74385,-1.8717458 -0.0548,-2.6704037 -0.73787,-0.737873 -1.05501,-0.7805699 -2.02103,-0.2720947 -0.86354,0.4545331 -1.16773,0.8915823 -1.17407,1.6868975 -0.0122,1.5349884 2.05757,2.3346554 3.24991,1.2556009 z m 51.85722,1.1682525 c -2.07861,-1.2673245 -2.23295,-3.4716297 -0.39203,-5.5986562 1.18365,-1.3675974 1.28,-1.621989 1.28,-3.3794621 0,-1.89837523 0.001,-1.9005377 0.96,-1.9005377 0.95891,0 0.96,0.00216247 0.96,1.9005377 0,1.7574731 0.0964,2.0118647 1.28,3.3794621 1.41191,1.6313267 1.61578,2.742455 0.79459,4.3304745 -0.53487,1.0343107 -1.95709,1.9101847 -3.0987,1.9083287 -0.40473,-6.72e-4 -1.20748,-0.288724 -1.78386,-0.640147 z m 3.12797,-1.5986563 c 0.352,-0.352 0.64,-0.928 0.64,-1.28 0,-0.8241804 -1.09582,-1.9199999 -1.92,-1.9199999 -0.88028,0 -1.92,1.1165283 -1.92,2.0618547 0,0.8406473 1.04983,1.7781452 1.99121,1.7781452 0.31283,0 0.85679,-0.288 1.20879,-0.64 z m 93.56629,-0.969136 c -2.86784,-2.8256687 -2.93837,-2.8708828 -4.48,-2.87206 -2.85888,-0.00218 -4.64352,-1.9640128 -3.99837,-4.3953444 0.19586,-0.73810532 0.43176,-0.90000122 1.4338,-0.9840008 l 1.19936,-0.10054149 -0.66054,0.66054147 c -0.83148,0.83148632 -0.83094,1.31760852 0.003,2.37738662 0.75736,0.9628329 1.44594,1.0591861 2.46557,0.3450095 0.85014,-0.5954563 0.93749,-1.9214194 0.18161,-2.75665759 C 297.52666,0.02857568 297.55699,0 298.65151,0 c 0.63289,0 1.2307,0.12942325 1.32846,0.28760721 0.0978,0.15818398 0.22672,1.10309819 0.28657,2.09980929 0.10642,1.7721757 0.15995,1.8636688 2.42343,4.142367 2.12347,2.1377301 2.30617,2.4260357 2.21232,3.4910545 l -0.1023,1.16089 z M 177.28657,7.0028683 c -1.24265,-0.4958051 -1.89695,-1.2395306 -2.11554,-2.4046972 -0.27963,-1.4905978 0.0387,-2.5023973 1.14266,-3.63171801 1.3602,-1.39146655 3.02546,-1.35366053 4.43507,0.10068831 1.91465,1.9754099 1.58458,4.6841627 -0.70303,5.769708 -1.24652,0.5915113 -1.63425,0.6148412 -2.75916,0.1660189 z m 2.55342,-1.8828685 c 1.75056,-1.7505583 -0.77789,-4.33277966 -2.6148,-2.6704038 -0.81739,0.7397311 -0.75209,2.1972167 0.12601,2.8122586 0.95721,0.6704563 1.71996,0.6269814 2.48879,-0.1418548 z M 0,1.12 C 0,0.21333333 0.12190476,0 0.63999998,0 1.4084009,0 1.4182831,0.08437223 0.79178234,1.2958911 0.15801724,2.5214577 0,2.4863548 0,1.12 Z"
       id="path3354" />
  </g>
</svg>
